<svg xmlns="http://www.w3.org/2000/svg" width="1600" height="960" viewBox="0 0 1600 960">
<title>DE NOYON — Mockup 24  Gold, by proportion</title>
<defs>
  <filter id="shadow" x="-10%" y="-10%" width="120%" height="125%"><feDropShadow dx="0" dy="10" stdDeviation="14" flood-color="#0C0B0A" flood-opacity="0.16"/></filter>
  <linearGradient id="fold" x1="-360" x2="360" y1="0" y2="0" gradientUnits="userSpaceOnUse">
    <stop offset="0" stop-color="#0C0B0A" stop-opacity="0.06"/><stop offset="0.3" stop-color="#0C0B0A" stop-opacity="0"/>
    <stop offset="0.7" stop-color="#0C0B0A" stop-opacity="0"/><stop offset="1" stop-color="#0C0B0A" stop-opacity="0.06"/>
  </linearGradient>
</defs>
<rect width="1600" height="960" fill="#D2C9BB"/>
<path d="M61.258 69.592L61.258 69.592Q63.468 67.892 64.981 66.549Q66.494 65.206 67.412 64.135Q68.330 63.064 68.755 62.112Q69.180 61.160 69.180 60.208L69.180 60.208Q69.180 58.746 68.279 57.930Q67.378 57.114 66.052 57.114L66.052 57.114Q64.692 57.114 63.689 58.134Q62.686 59.154 62.108 61.228L62.108 61.228Q62.074 61.296 61.870 61.262Q61.666 61.228 61.700 61.126L61.700 61.126L62.992 56.128Q63.026 56.026 63.230 56.077Q63.434 56.128 63.366 56.196L63.366 56.196Q63.230 56.740 63.417 56.910Q63.604 57.080 63.842 57.080L63.842 57.080Q64.352 57.080 65.219 56.757Q66.086 56.434 67.276 56.434L67.276 56.434Q69.010 56.434 69.996 57.386Q70.982 58.338 70.982 59.834L70.982 59.834Q70.982 60.684 70.591 61.551Q70.200 62.418 69.350 63.404Q68.500 64.390 67.106 65.597Q65.712 66.804 63.672 68.368L63.672 68.368Q63.536 68.470 63.604 68.538Q63.672 68.606 63.808 68.606L63.808 68.606Q66.460 68.606 68.058 68.555Q69.656 68.504 70.489 68.300Q71.322 68.096 71.679 67.603Q72.036 67.110 72.240 66.260L72.240 66.260Q72.274 66.192 72.461 66.209Q72.648 66.226 72.648 66.294L72.648 66.294L72.172 69.626Q72.172 69.762 72.087 69.881Q72.002 70 71.866 70L71.866 70Q69.452 70 66.749 70Q64.046 70 61.496 70L61.496 70Q61.360 70 61.258 69.864Q61.156 69.728 61.258 69.592ZM74.280 69.728L74.280 69.728Q74.144 69.728 74.025 69.592Q73.906 69.456 74.042 69.320L74.042 69.320L83.800 56.536Q83.868 56.434 84.089 56.468Q84.310 56.502 84.310 56.672L84.310 56.672L84.310 75.372Q84.310 75.746 84.038 75.848L84.038 75.848L82.950 76.392Q82.644 76.562 82.644 76.188L82.644 76.188L82.644 58.950L83.324 58.508L75.674 68.504Q75.572 68.606 75.640 68.674Q75.708 68.742 75.844 68.742L75.844 68.742Q77.816 68.742 79.329 68.725Q80.842 68.708 82.100 68.674Q83.358 68.640 84.616 68.606Q85.874 68.572 87.336 68.538L87.336 68.538Q87.438 68.538 87.472 68.895Q87.506 69.252 87.472 69.609Q87.438 69.966 87.336 69.966L87.336 69.966Q85.976 69.898 84.667 69.847Q83.358 69.796 81.896 69.779Q80.434 69.762 78.581 69.745Q76.728 69.728 74.280 69.728ZM117.290 70.408L117.290 70.408Q114.434 70.408 112.173 69.524Q109.912 68.640 108.365 67.076Q106.818 65.512 106.002 63.489Q105.186 61.466 105.186 59.188L105.186 59.188Q105.186 56.638 106.155 54.649Q107.124 52.660 108.841 51.249Q110.558 49.838 112.853 49.107Q115.148 48.376 117.800 48.376L117.800 48.376Q119.704 48.376 121.268 48.750Q122.832 49.124 123.886 49.804L123.886 49.804Q124.124 49.940 124.158 50.042Q124.192 50.144 124.226 50.552L124.226 50.552L124.634 54.360Q124.634 54.462 124.464 54.496Q124.294 54.530 124.226 54.428L124.226 54.428Q123.852 53.034 123.291 51.997Q122.730 50.960 121.897 50.280Q121.064 49.600 119.942 49.243Q118.820 48.886 117.324 48.886L117.324 48.886Q114.536 48.886 112.292 50.076Q110.048 51.266 108.739 53.476Q107.430 55.686 107.430 58.746L107.430 58.746Q107.430 60.718 108.059 62.707Q108.688 64.696 109.997 66.328Q111.306 67.960 113.346 68.946Q115.386 69.932 118.208 69.932L118.208 69.932Q119.908 69.932 120.911 69.490Q121.914 69.048 122.356 68.130Q122.798 67.212 122.798 65.750L122.798 65.750Q122.798 64.118 122.577 63.353Q122.356 62.588 121.523 62.350Q120.690 62.112 118.820 62.112L118.820 62.112Q118.616 62.112 118.616 61.840Q118.616 61.568 118.786 61.568L118.786 61.568Q120.894 61.704 122.628 61.721Q124.362 61.738 126.266 61.636L126.266 61.636Q126.436 61.636 126.436 61.874Q126.436 62.112 126.266 62.112L126.266 62.112Q125.416 62.078 125.025 62.333Q124.634 62.588 124.532 63.438Q124.430 64.288 124.430 66.090L124.430 66.090Q124.430 67.212 124.498 67.756Q124.566 68.300 124.617 68.555Q124.668 68.810 124.668 69.082L124.668 69.082Q124.668 69.286 124.600 69.354Q124.532 69.422 124.294 69.490L124.294 69.490Q122.594 69.864 120.741 70.136Q118.888 70.408 117.290 70.408ZM135.106 70.442L135.106 70.442Q133.100 70.442 131.621 69.456Q130.142 68.470 129.343 66.821Q128.544 65.172 128.544 63.268L128.544 63.268Q128.544 61.500 129.190 60.208Q129.836 58.916 130.907 58.083Q131.978 57.250 133.236 56.842Q134.494 56.434 135.718 56.434L135.718 56.434Q137.758 56.434 139.220 57.454Q140.682 58.474 141.464 60.072Q142.246 61.670 142.246 63.438L142.246 63.438Q142.246 65.614 141.260 67.178Q140.274 68.742 138.659 69.592Q137.044 70.442 135.106 70.442ZM136.058 69.830L136.058 69.830Q137.962 69.830 139.118 68.555Q140.274 67.280 140.274 64.322L140.274 64.322Q140.274 62.248 139.560 60.616Q138.846 58.984 137.571 58.032Q136.296 57.080 134.596 57.080L134.596 57.080Q132.658 57.080 131.570 58.423Q130.482 59.766 130.482 62.282L130.482 62.282Q130.482 64.288 131.179 66.022Q131.876 67.756 133.134 68.793Q134.392 69.830 136.058 69.830ZM144.558 70L144.558 70Q144.456 70 144.456 69.796Q144.456 69.592 144.558 69.592L144.558 69.592Q145.952 69.592 146.360 69.150Q146.768 68.708 146.768 67.246L146.768 67.246L146.768 49.600Q146.768 48.376 146.530 47.815Q146.292 47.254 145.680 47.254L145.680 47.254Q145.136 47.254 144.048 47.764L144.048 47.764Q143.912 47.832 143.827 47.628Q143.742 47.424 143.878 47.390L143.878 47.390L148.060 45.384Q148.128 45.350 148.230 45.350L148.230 45.350Q148.298 45.350 148.383 45.418Q148.468 45.486 148.468 45.588L148.468 45.588L148.468 67.246Q148.468 68.674 148.859 69.133Q149.250 69.592 150.678 69.592L150.678 69.592Q150.780 69.592 150.780 69.796Q150.780 70 150.678 70L150.678 70Q150.100 70 149.301 69.966Q148.502 69.932 147.618 69.932L147.618 69.932Q146.768 69.932 145.952 69.966Q145.136 70 144.558 70ZM158.090 70.442L158.090 70.442Q156.696 70.442 155.472 69.626Q154.248 68.810 153.517 67.365Q152.786 65.920 152.786 63.982L152.786 63.982Q152.786 62.078 153.517 60.667Q154.248 59.256 155.404 58.321Q156.560 57.386 157.920 56.910Q159.280 56.434 160.538 56.434L160.538 56.434Q161.728 56.434 162.765 56.859Q163.802 57.284 164.686 58.066L164.686 58.066L164.380 60.242Q163.530 58.950 162.425 58.015Q161.320 57.080 159.518 57.080L159.518 57.080Q157.342 57.080 155.999 58.627Q154.656 60.174 154.656 62.996L154.656 62.996Q154.656 64.900 155.268 66.328Q155.880 67.756 156.934 68.538Q157.988 69.320 159.280 69.320L159.280 69.320Q160.844 69.320 162.068 68.436Q163.292 67.552 164.380 66.328L164.380 66.328L164.652 66.566Q163.938 67.382 162.986 68.283Q162.034 69.184 160.827 69.813Q159.620 70.442 158.090 70.442ZM165.536 45.588L165.536 45.588L165.536 66.328Q165.536 67.552 165.825 68.113Q166.114 68.674 166.828 68.674L166.828 68.674Q167.168 68.674 167.661 68.589Q168.154 68.504 168.698 68.164L168.698 68.164Q168.868 68.096 168.953 68.283Q169.038 68.470 168.868 68.538L168.868 68.538L165.366 70.204Q165.230 70.272 165.094 70.272L165.094 70.272Q164.652 70.272 164.295 69.507Q163.938 68.742 163.938 67.246L163.938 67.246L163.938 49.634Q163.938 48.410 163.700 47.849Q163.462 47.288 162.782 47.288L162.782 47.288Q162.476 47.288 162.102 47.424Q161.728 47.560 161.150 47.798L161.150 47.798Q161.014 47.866 160.929 47.662Q160.844 47.458 160.980 47.424L160.980 47.424L165.128 45.384Q165.196 45.350 165.298 45.350L165.298 45.350Q165.366 45.350 165.451 45.418Q165.536 45.486 165.536 45.588ZM172.098 67.892L172.098 67.892Q173.084 67.892 173.645 68.606Q174.206 69.320 174.206 70.782L174.206 70.782Q174.206 72.278 173.577 73.570Q172.948 74.862 171.860 76.086L171.860 76.086Q171.724 76.188 171.622 76.069Q171.520 75.950 171.588 75.848L171.588 75.848Q172.370 74.726 172.574 73.791Q172.778 72.856 172.778 71.836L172.778 71.836Q172.778 70.850 172.472 70.272Q172.166 69.694 171.792 69.320L171.792 69.320L173.084 69.082Q173.118 69.660 172.778 69.966Q172.438 70.272 171.928 70.272L171.928 70.272Q171.350 70.272 171.027 69.949Q170.704 69.626 170.704 69.082L170.704 69.082Q170.704 68.504 171.044 68.198Q171.384 67.892 172.098 67.892ZM191.920 70.442L191.920 70.442Q190.628 70.442 189.370 70.034Q188.112 69.626 186.888 68.606L186.888 68.606L188.350 65.818Q188.350 67.280 189.149 68.164Q189.948 69.048 191.053 69.422Q192.158 69.796 193.042 69.796L193.042 69.796Q195.150 69.796 196.340 68.266Q197.530 66.736 197.530 63.812L197.530 63.812Q197.530 60.650 196.238 59.018Q194.946 57.386 193.008 57.386L193.008 57.386Q191.512 57.386 190.271 58.355Q189.030 59.324 187.942 60.548L187.942 60.548L187.670 60.310Q188.384 59.494 189.302 58.593Q190.220 57.692 191.393 57.063Q192.566 56.434 194.028 56.434L194.028 56.434Q195.456 56.434 196.680 57.131Q197.904 57.828 198.669 59.222Q199.434 60.616 199.434 62.724L199.434 62.724Q199.434 65.308 198.329 67.025Q197.224 68.742 195.490 69.592Q193.756 70.442 191.920 70.442ZM188.350 68.504L184.882 70.136Q184.746 70.170 184.678 70.034Q184.610 69.898 184.712 69.796L184.712 69.796Q185.732 69.082 186.242 68.470Q186.752 67.858 186.752 66.498L186.752 66.498L186.752 49.634Q186.752 48.410 186.514 47.849Q186.276 47.288 185.630 47.288L185.630 47.288Q185.052 47.288 183.998 47.764L183.998 47.764Q183.862 47.832 183.794 47.628Q183.726 47.424 183.862 47.390L183.862 47.390L187.942 45.384Q188.044 45.350 188.112 45.350L188.112 45.350Q188.180 45.350 188.265 45.418Q188.350 45.486 188.350 45.588L188.350 45.588L188.350 68.504ZM214.972 56.876L214.972 56.876Q215.074 56.876 215.074 57.080Q215.074 57.284 214.972 57.284L214.972 57.284Q214.190 57.284 213.612 57.760Q213.034 58.236 212.524 59.630L212.524 59.630L208.274 70.952Q207.050 74.216 205.928 76.103Q204.806 77.990 203.599 78.772Q202.392 79.554 200.862 79.554L200.862 79.554Q200.216 79.554 199.723 79.248Q199.230 78.942 199.230 78.296L199.230 78.296Q199.230 77.888 199.519 77.667Q199.808 77.446 200.148 77.446L200.148 77.446Q200.828 77.446 201.185 77.633Q201.542 77.820 201.865 78.024Q202.188 78.228 202.732 78.228L202.732 78.228Q203.582 78.228 204.364 77.446Q205.146 76.664 206.047 74.794Q206.948 72.924 208.172 69.694L208.172 69.694L208.172 70.442L202.902 59.698Q202.154 58.202 201.729 57.743Q201.304 57.284 200.658 57.284L200.658 57.284Q200.590 57.284 200.590 57.080Q200.590 56.876 200.658 56.876L200.658 56.876Q201.168 56.876 201.712 56.910Q202.256 56.944 202.766 56.944L202.766 56.944Q203.854 56.944 204.687 56.910Q205.520 56.876 206.200 56.876L206.200 56.876Q206.268 56.876 206.268 57.080Q206.268 57.284 206.200 57.284L206.200 57.284Q205.146 57.284 204.517 57.556Q203.888 57.828 204.296 58.610L204.296 58.610L209.056 68.368L208.376 69.626L211.810 59.766Q212.320 58.270 211.776 57.777Q211.232 57.284 209.328 57.284L209.328 57.284Q209.260 57.284 209.260 57.080Q209.260 56.876 209.328 56.876L209.328 56.876Q210.144 56.876 210.875 56.910Q211.606 56.944 212.762 56.944L212.762 56.944Q213.476 56.944 213.918 56.910Q214.360 56.876 214.972 56.876ZM223.642 79.350L223.642 79.350Q223.540 79.350 223.540 79.146Q223.540 78.942 223.642 78.942L223.642 78.942Q225.036 78.942 225.444 78.500Q225.852 78.058 225.852 76.596L225.852 76.596L225.852 60.548Q225.852 59.324 225.580 58.763Q225.308 58.202 224.594 58.202L224.594 58.202Q224.254 58.202 223.778 58.321Q223.302 58.440 222.724 58.712L222.724 58.712Q222.588 58.746 222.503 58.576Q222.418 58.406 222.554 58.338L222.554 58.338L226.056 56.672Q226.192 56.604 226.328 56.604L226.328 56.604Q226.804 56.604 227.127 57.369Q227.450 58.134 227.450 59.630L227.450 59.630L227.450 76.596Q227.450 77.548 227.705 78.058Q227.960 78.568 228.725 78.755Q229.490 78.942 230.952 78.942L230.952 78.942Q231.020 78.942 231.020 79.146Q231.020 79.350 230.952 79.350L230.952 79.350Q230.068 79.350 228.980 79.316Q227.892 79.282 226.702 79.282L226.702 79.282Q225.852 79.282 225.036 79.316Q224.220 79.350 223.642 79.350ZM231.224 70.442L231.224 70.442Q229.932 70.442 228.929 70.102Q227.926 69.762 226.736 68.810L226.736 68.810L227.042 67.008Q228.028 68.198 229.218 68.980Q230.408 69.762 232.346 69.762L232.346 69.762Q234.148 69.762 235.389 68.164Q236.630 66.566 236.630 63.744L236.630 63.744Q236.630 60.718 235.321 59.137Q234.012 57.556 232.108 57.556L232.108 57.556Q230.544 57.556 229.354 58.440Q228.164 59.324 227.042 60.548L227.042 60.548L226.770 60.310Q228.504 58.304 230.102 57.369Q231.700 56.434 233.332 56.434L233.332 56.434Q234.726 56.434 235.899 57.165Q237.072 57.896 237.786 59.290Q238.500 60.684 238.500 62.690L238.500 62.690Q238.500 64.730 237.786 66.192Q237.072 67.654 235.933 68.589Q234.794 69.524 233.553 69.983Q232.312 70.442 231.224 70.442ZM244.246 60.786L244.246 60.786L244.110 60.446Q245.368 58.882 246.167 58.049Q246.966 57.216 247.544 56.893Q248.122 56.570 248.666 56.570L248.666 56.570Q249.380 56.570 250.060 56.944Q250.740 57.318 250.740 57.862L250.740 57.862Q250.740 58.202 250.485 58.474Q250.230 58.746 249.754 58.746L249.754 58.746Q249.346 58.746 249.057 58.508Q248.768 58.270 248.428 58.049Q248.088 57.828 247.510 57.828L247.510 57.828Q247.204 57.828 246.847 58.015Q246.490 58.202 245.895 58.831Q245.300 59.460 244.246 60.786ZM241.084 70L241.084 70Q240.982 70 240.982 69.796Q240.982 69.592 241.084 69.592L241.084 69.592Q242.478 69.592 242.886 69.150Q243.294 68.708 243.294 67.246L243.294 67.246L243.294 60.446Q243.294 59.290 243.022 58.763Q242.750 58.236 242.070 58.236L242.070 58.236Q241.730 58.236 241.254 58.372Q240.778 58.508 240.166 58.746L240.166 58.746Q240.030 58.780 239.945 58.610Q239.860 58.440 239.996 58.372L239.996 58.372L243.770 56.604Q243.838 56.570 243.940 56.570L243.940 56.570Q244.178 56.570 244.535 57.267Q244.892 57.964 244.892 59.290L244.892 59.290L244.892 67.246Q244.892 68.232 245.130 68.742Q245.368 69.252 246.099 69.422Q246.830 69.592 248.292 69.592L248.292 69.592Q248.394 69.592 248.394 69.796Q248.394 70 248.292 70L248.292 70Q247.476 70 246.388 69.966Q245.300 69.932 244.110 69.932L244.110 69.932Q243.260 69.932 242.461 69.966Q241.662 70 241.084 70ZM258.832 70.442L258.832 70.442Q256.826 70.442 255.347 69.456Q253.868 68.470 253.069 66.821Q252.270 65.172 252.270 63.268L252.270 63.268Q252.270 61.500 252.916 60.208Q253.562 58.916 254.633 58.083Q255.704 57.250 256.962 56.842Q258.220 56.434 259.444 56.434L259.444 56.434Q261.484 56.434 262.946 57.454Q264.408 58.474 265.190 60.072Q265.972 61.670 265.972 63.438L265.972 63.438Q265.972 65.614 264.986 67.178Q264 68.742 262.385 69.592Q260.770 70.442 258.832 70.442ZM259.784 69.830L259.784 69.830Q261.688 69.830 262.844 68.555Q264 67.280 264 64.322L264 64.322Q264 62.248 263.286 60.616Q262.572 58.984 261.297 58.032Q260.022 57.080 258.322 57.080L258.322 57.080Q256.384 57.080 255.296 58.423Q254.208 59.766 254.208 62.282L254.208 62.282Q254.208 64.288 254.905 66.022Q255.602 67.756 256.860 68.793Q258.118 69.830 259.784 69.830ZM268.012 79.350L268.012 79.350Q267.910 79.350 267.910 79.146Q267.910 78.942 268.012 78.942L268.012 78.942Q269.406 78.942 269.814 78.500Q270.222 78.058 270.222 76.596L270.222 76.596L270.222 60.548Q270.222 59.324 269.950 58.763Q269.678 58.202 268.964 58.202L268.964 58.202Q268.624 58.202 268.148 58.321Q267.672 58.440 267.094 58.712L267.094 58.712Q266.958 58.746 266.873 58.576Q266.788 58.406 266.924 58.338L266.924 58.338L270.426 56.672Q270.562 56.604 270.698 56.604L270.698 56.604Q271.174 56.604 271.497 57.369Q271.820 58.134 271.820 59.630L271.820 59.630L271.820 76.596Q271.820 77.548 272.075 78.058Q272.330 78.568 273.095 78.755Q273.860 78.942 275.322 78.942L275.322 78.942Q275.390 78.942 275.390 79.146Q275.390 79.350 275.322 79.350L275.322 79.350Q274.438 79.350 273.350 79.316Q272.262 79.282 271.072 79.282L271.072 79.282Q270.222 79.282 269.406 79.316Q268.590 79.350 268.012 79.350ZM275.594 70.442L275.594 70.442Q274.302 70.442 273.299 70.102Q272.296 69.762 271.106 68.810L271.106 68.810L271.412 67.008Q272.398 68.198 273.588 68.980Q274.778 69.762 276.716 69.762L276.716 69.762Q278.518 69.762 279.759 68.164Q281 66.566 281 63.744L281 63.744Q281 60.718 279.691 59.137Q278.382 57.556 276.478 57.556L276.478 57.556Q274.914 57.556 273.724 58.440Q272.534 59.324 271.412 60.548L271.412 60.548L271.140 60.310Q272.874 58.304 274.472 57.369Q276.070 56.434 277.702 56.434L277.702 56.434Q279.096 56.434 280.269 57.165Q281.442 57.896 282.156 59.290Q282.870 60.684 282.870 62.690L282.870 62.690Q282.870 64.730 282.156 66.192Q281.442 67.654 280.303 68.589Q279.164 69.524 277.923 69.983Q276.682 70.442 275.594 70.442ZM291.710 70.442L291.710 70.442Q289.704 70.442 288.225 69.456Q286.746 68.470 285.947 66.821Q285.148 65.172 285.148 63.268L285.148 63.268Q285.148 61.500 285.794 60.208Q286.440 58.916 287.511 58.083Q288.582 57.250 289.840 56.842Q291.098 56.434 292.322 56.434L292.322 56.434Q294.362 56.434 295.824 57.454Q297.286 58.474 298.068 60.072Q298.850 61.670 298.850 63.438L298.850 63.438Q298.850 65.614 297.864 67.178Q296.878 68.742 295.263 69.592Q293.648 70.442 291.710 70.442ZM292.662 69.830L292.662 69.830Q294.566 69.830 295.722 68.555Q296.878 67.280 296.878 64.322L296.878 64.322Q296.878 62.248 296.164 60.616Q295.450 58.984 294.175 58.032Q292.900 57.080 291.200 57.080L291.200 57.080Q289.262 57.080 288.174 58.423Q287.086 59.766 287.086 62.282L287.086 62.282Q287.086 64.288 287.783 66.022Q288.480 67.756 289.738 68.793Q290.996 69.830 292.662 69.830ZM304.494 60.786L304.494 60.786L304.358 60.446Q305.616 58.882 306.415 58.049Q307.214 57.216 307.792 56.893Q308.370 56.570 308.914 56.570L308.914 56.570Q309.628 56.570 310.308 56.944Q310.988 57.318 310.988 57.862L310.988 57.862Q310.988 58.202 310.733 58.474Q310.478 58.746 310.002 58.746L310.002 58.746Q309.594 58.746 309.305 58.508Q309.016 58.270 308.676 58.049Q308.336 57.828 307.758 57.828L307.758 57.828Q307.452 57.828 307.095 58.015Q306.738 58.202 306.143 58.831Q305.548 59.460 304.494 60.786ZM301.332 70L301.332 70Q301.230 70 301.230 69.796Q301.230 69.592 301.332 69.592L301.332 69.592Q302.726 69.592 303.134 69.150Q303.542 68.708 303.542 67.246L303.542 67.246L303.542 60.446Q303.542 59.290 303.270 58.763Q302.998 58.236 302.318 58.236L302.318 58.236Q301.978 58.236 301.502 58.372Q301.026 58.508 300.414 58.746L300.414 58.746Q300.278 58.780 300.193 58.610Q300.108 58.440 300.244 58.372L300.244 58.372L304.018 56.604Q304.086 56.570 304.188 56.570L304.188 56.570Q304.426 56.570 304.783 57.267Q305.140 57.964 305.140 59.290L305.140 59.290L305.140 67.246Q305.140 68.232 305.378 68.742Q305.616 69.252 306.347 69.422Q307.078 69.592 308.540 69.592L308.540 69.592Q308.642 69.592 308.642 69.796Q308.642 70 308.540 70L308.540 70Q307.724 70 306.636 69.966Q305.548 69.932 304.358 69.932L304.358 69.932Q303.508 69.932 302.709 69.966Q301.910 70 301.332 70ZM318.094 70.408L318.094 70.408Q317.278 70.408 316.547 70.153Q315.816 69.898 315.374 69.303Q314.932 68.708 314.932 67.688L314.932 67.688L314.932 59.596Q314.932 58.746 314.830 58.355Q314.728 57.964 314.354 57.845Q313.980 57.726 313.164 57.726L313.164 57.726Q313.062 57.726 313.062 57.522Q313.062 57.318 313.164 57.318L313.164 57.318Q314.456 57.318 315.255 56.604Q316.054 55.890 316.054 54.802L316.054 54.802Q316.054 54.700 316.309 54.700Q316.564 54.700 316.564 54.802L316.564 54.802L316.564 66.532Q316.564 67.960 317.261 68.657Q317.958 69.354 319.318 69.354L319.318 69.354Q320.236 69.354 320.933 69.065Q321.630 68.776 322.072 68.436L322.072 68.436Q322.208 68.368 322.310 68.521Q322.412 68.674 322.276 68.776L322.276 68.776Q321.018 69.660 320.066 70.034Q319.114 70.408 318.094 70.408ZM321.256 58.508L321.256 58.508Q319.930 58.168 318.723 58.083Q317.516 57.998 316.156 57.998L316.156 57.998L316.156 57.284Q317.482 57.284 318.723 57.182Q319.964 57.080 321.358 56.944L321.358 56.944Q321.460 56.944 321.528 57.165Q321.596 57.386 321.596 57.726L321.596 57.726Q321.596 57.964 321.494 58.253Q321.392 58.542 321.256 58.508ZM324.792 70L324.792 70Q324.724 70 324.724 69.796Q324.724 69.592 324.792 69.592L324.792 69.592Q326.186 69.592 326.611 69.150Q327.036 68.708 327.036 67.246L327.036 67.246L327.036 60.820Q327.036 59.596 326.798 59.035Q326.560 58.474 325.914 58.474L325.914 58.474Q325.608 58.474 325.217 58.593Q324.826 58.712 324.282 58.984L324.282 58.984Q324.146 59.018 324.061 58.831Q323.976 58.644 324.112 58.576L324.112 58.576L328.328 56.604Q328.430 56.570 328.464 56.570L328.464 56.570Q328.532 56.570 328.617 56.638Q328.702 56.706 328.702 56.808L328.702 56.808Q328.702 57.046 328.668 58.117Q328.634 59.188 328.634 60.786L328.634 60.786L328.634 67.246Q328.634 68.708 329.025 69.150Q329.416 69.592 330.844 69.592L330.844 69.592Q330.946 69.592 330.946 69.796Q330.946 70 330.844 70L330.844 70Q330.266 70 329.484 69.966Q328.702 69.932 327.818 69.932L327.818 69.932Q326.968 69.932 326.186 69.966Q325.404 70 324.792 70ZM327.546 52.456L327.546 52.456Q326.900 52.456 326.543 52.116Q326.186 51.776 326.186 51.164L326.186 51.164Q326.186 50.552 326.543 50.212Q326.900 49.872 327.546 49.872L327.546 49.872Q328.158 49.872 328.498 50.212Q328.838 50.552 328.838 51.164L328.838 51.164Q328.838 52.456 327.546 52.456ZM339.684 70.442L339.684 70.442Q337.678 70.442 336.199 69.456Q334.720 68.470 333.921 66.821Q333.122 65.172 333.122 63.268L333.122 63.268Q333.122 61.500 333.768 60.208Q334.414 58.916 335.485 58.083Q336.556 57.250 337.814 56.842Q339.072 56.434 340.296 56.434L340.296 56.434Q342.336 56.434 343.798 57.454Q345.260 58.474 346.042 60.072Q346.824 61.670 346.824 63.438L346.824 63.438Q346.824 65.614 345.838 67.178Q344.852 68.742 343.237 69.592Q341.622 70.442 339.684 70.442ZM340.636 69.830L340.636 69.830Q342.540 69.830 343.696 68.555Q344.852 67.280 344.852 64.322L344.852 64.322Q344.852 62.248 344.138 60.616Q343.424 58.984 342.149 58.032Q340.874 57.080 339.174 57.080L339.174 57.080Q337.236 57.080 336.148 58.423Q335.060 59.766 335.060 62.282L335.060 62.282Q335.060 64.288 335.757 66.022Q336.454 67.756 337.712 68.793Q338.970 69.830 340.636 69.830ZM358.452 70L358.452 70Q358.350 70 358.350 69.796Q358.350 69.592 358.452 69.592L358.452 69.592Q359.846 69.592 360.254 69.150Q360.662 68.708 360.662 67.246L360.662 67.246L360.662 61.568Q360.662 59.494 359.880 58.542Q359.098 57.590 357.432 57.590L357.432 57.590Q356.140 57.590 354.797 58.440Q353.454 59.290 352.468 60.786L352.468 60.786L352.332 60.378Q353.930 58.270 355.392 57.352Q356.854 56.434 358.350 56.434L358.350 56.434Q360.220 56.434 361.240 57.437Q362.260 58.440 362.260 60.548L362.260 60.548L362.260 67.246Q362.260 68.708 362.651 69.150Q363.042 69.592 364.470 69.592L364.470 69.592Q364.572 69.592 364.572 69.796Q364.572 70 364.470 70L364.470 70Q363.892 70 363.110 69.966Q362.328 69.932 361.478 69.932L361.478 69.932Q360.628 69.932 359.829 69.966Q359.030 70 358.452 70ZM349.306 70L349.306 70Q349.204 70 349.204 69.796Q349.204 69.592 349.306 69.592L349.306 69.592Q350.700 69.592 351.108 69.150Q351.516 68.708 351.516 67.246L351.516 67.246L351.516 60.446Q351.516 59.290 351.244 58.763Q350.972 58.236 350.292 58.236L350.292 58.236Q349.952 58.236 349.476 58.372Q349.000 58.508 348.388 58.746L348.388 58.746Q348.252 58.780 348.167 58.610Q348.082 58.440 348.218 58.372L348.218 58.372L351.992 56.604Q352.060 56.570 352.162 56.570L352.162 56.570Q352.400 56.570 352.757 57.267Q353.114 57.964 353.114 59.290L353.114 59.290L353.114 67.246Q353.114 68.708 353.505 69.150Q353.896 69.592 355.324 69.592L355.324 69.592Q355.426 69.592 355.426 69.796Q355.426 70 355.324 70L355.324 70Q354.746 70 353.964 69.966Q353.182 69.932 352.332 69.932L352.332 69.932Q351.482 69.932 350.683 69.966Q349.884 70 349.306 70Z" fill="#0C0B0A"/>
<path d="M1517.068 66L1511.452 66L1511.452 65.129L1513.714 65.129L1513.714 57.797L1511.452 57.797L1511.452 56.926L1517.068 56.926L1517.068 57.797L1514.806 57.797L1514.806 65.129L1517.068 65.129L1517.068 66ZM1526.493 66L1523.399 58.356L1523.308 58.356L1523.308 66L1522.320 66L1522.320 56.926L1523.867 56.926L1526.961 64.570L1527.052 64.570L1527.052 56.926L1528.040 56.926L1528.040 66L1526.493 66ZM1538.440 66L1535.697 61.554L1534.397 63.088L1534.397 66L1533.305 66L1533.305 56.926L1534.397 56.926L1534.397 61.658L1534.436 61.658L1535.632 60.150L1538.310 56.926L1539.623 56.926L1536.438 60.748L1539.714 66L1538.440 66Z" fill="#0C0B0A"/>
<g transform="translate(410 130) scale(1.06)"><g>
    <path d="M-90 0 L-235 42 L-348 182 L-262 232 L-248 210 L-255 690 L255 690 L248 210 L262 232 L348 182 L235 42 L90 0 C85 107 -85 107 -90 0 Z" fill="#0C0B0A" filter="url(#shadow)"/>
    <path d="M-90 0 L-235 42 L-348 182 L-262 232 L-248 210 L-255 690 L255 690 L248 210 L262 232 L348 182 L235 42 L90 0 C85 107 -85 107 -90 0 Z" fill="url(#fold)"/>
    <path d="M-90 0 C-85 27 85 27 90 0 C85 107 -85 107 -90 0 Z" fill="rgba(12,11,10,0.35)"/>
    <path d="M90 0 C85 107 -85 107 -90 0" fill="none" stroke="rgba(12,11,10,0.25)" stroke-width="16" transform="translate(0 7)"/>
    <path d="M90 0 C85 107 -85 107 -90 0" fill="none" stroke="rgba(242,235,223,.18)" stroke-width="1" stroke-dasharray="3 2.5" transform="translate(0 15)"/>
    <path d="M-255 676 L255 676" stroke="rgba(242,235,223,.18)" stroke-width="1" stroke-dasharray="3 2.5"/>
    <path d="M-343.3 171 L-257.3 221" stroke="rgba(242,235,223,.18)" stroke-width="1" stroke-dasharray="3 2.5"/><path d="M343.3 171 L257.3 221" stroke="rgba(242,235,223,.18)" stroke-width="1" stroke-dasharray="3 2.5"/>
    <path d="M-90 0 L-235 42 L-348 182 L-262 232 L-248 210 L-255 690 L255 690 L248 210 L262 232 L348 182 L235 42 L90 0 C85 107 -85 107 -90 0 Z" fill="none" stroke="rgba(242,235,223,.22)" stroke-width="1.2" stroke-linejoin="round"/>
    
  </g></g>
<g transform="translate(1190 130) scale(1.06)"><g>
    <path d="M-90 0 L-235 42 L-348 182 L-262 232 L-248 210 L-255 690 L255 690 L248 210 L262 232 L348 182 L235 42 L90 0 C85 27 -85 27 -90 0 Z" fill="#0C0B0A" filter="url(#shadow)"/>
    <path d="M-90 0 L-235 42 L-348 182 L-262 232 L-248 210 L-255 690 L255 690 L248 210 L262 232 L348 182 L235 42 L90 0 C85 27 -85 27 -90 0 Z" fill="url(#fold)"/>
    
    <path d="M90 0 C85 27 -85 27 -90 0" fill="none" stroke="rgba(12,11,10,0.25)" stroke-width="16" transform="translate(0 7)"/>
    <path d="M90 0 C85 27 -85 27 -90 0" fill="none" stroke="rgba(242,235,223,.18)" stroke-width="1" stroke-dasharray="3 2.5" transform="translate(0 15)"/>
    <path d="M-255 676 L255 676" stroke="rgba(242,235,223,.18)" stroke-width="1" stroke-dasharray="3 2.5"/>
    <path d="M-343.3 171 L-257.3 221" stroke="rgba(242,235,223,.18)" stroke-width="1" stroke-dasharray="3 2.5"/><path d="M343.3 171 L257.3 221" stroke="rgba(242,235,223,.18)" stroke-width="1" stroke-dasharray="3 2.5"/>
    <path d="M-90 0 L-235 42 L-348 182 L-262 232 L-248 210 L-255 690 L255 690 L248 210 L262 232 L348 182 L235 42 L90 0 C85 27 -85 27 -90 0 Z" fill="none" stroke="rgba(242,235,223,.22)" stroke-width="1.2" stroke-linejoin="round"/>
    <g transform="rotate(0 0 205)"><svg x="-140" y="130" width="280" height="150" viewBox="0 0 280 150" overflow="visible">

<g id="sep-cream" data-ink="#F2EBDF · Custom mix to #F2EBDF — confirm with drawdown"><path d="M26.171 48.595L26.171 48.595Q20.743 48.595 16.446 46.914Q12.149 45.234 9.208 42.262Q6.268 39.289 4.717 35.444Q3.166 31.599 3.166 27.270L3.166 27.270Q3.166 22.423 5.008 18.643Q6.850 14.863 10.113 12.181Q13.376 9.499 17.738 8.110Q22.100 6.721 27.141 6.721L27.141 6.721Q30.759 6.721 33.732 7.431Q36.704 8.142 38.708 9.435L38.708 9.435Q39.160 9.693 39.225 9.887Q39.289 10.081 39.354 10.856L39.354 10.856L40.129 18.094Q40.129 18.288 39.806 18.352Q39.483 18.417 39.354 18.223L39.354 18.223Q38.643 15.574 37.577 13.603Q36.511 11.632 34.927 10.339Q33.344 9.047 31.212 8.368Q29.079 7.690 26.236 7.690L26.236 7.690Q20.937 7.690 16.672 9.952Q12.407 12.213 9.919 16.414Q7.431 20.614 7.431 26.430L7.431 26.430Q7.431 30.178 8.627 33.958Q9.822 37.738 12.310 40.840Q14.798 43.942 18.675 45.816Q22.553 47.690 27.916 47.690L27.916 47.690Q31.147 47.690 33.053 46.850Q34.960 46.010 35.800 44.265Q36.640 42.520 36.640 39.742L36.640 39.742Q36.640 36.640 36.220 35.186Q35.800 33.732 34.216 33.279Q32.633 32.827 29.079 32.827L29.079 32.827Q28.691 32.827 28.691 32.310Q28.691 31.793 29.015 31.793L29.015 31.793Q33.021 32.052 36.317 32.084Q39.612 32.116 43.231 31.922L43.231 31.922Q43.554 31.922 43.554 32.375Q43.554 32.827 43.231 32.827L43.231 32.827Q41.616 32.763 40.872 33.247Q40.129 33.732 39.935 35.347Q39.742 36.963 39.742 40.388L39.742 40.388Q39.742 42.520 39.871 43.554Q40.000 44.588 40.097 45.073Q40.194 45.557 40.194 46.074L40.194 46.074Q40.194 46.462 40.065 46.591Q39.935 46.721 39.483 46.850L39.483 46.850Q36.252 47.561 32.730 48.078Q29.208 48.595 26.171 48.595ZM59.709 48.659L59.709 48.659Q55.897 48.659 53.086 46.785Q50.275 44.911 48.756 41.777Q47.237 38.643 47.237 35.024L47.237 35.024Q47.237 31.664 48.465 29.208Q49.693 26.753 51.729 25.170Q53.764 23.586 56.155 22.811Q58.546 22.036 60.872 22.036L60.872 22.036Q64.750 22.036 67.528 23.974Q70.307 25.913 71.793 28.950Q73.279 31.987 73.279 35.347L73.279 35.347Q73.279 39.483 71.405 42.456Q69.532 45.428 66.462 47.044Q63.393 48.659 59.709 48.659ZM61.519 47.496L61.519 47.496Q65.137 47.496 67.334 45.073Q69.532 42.649 69.532 37.027L69.532 37.027Q69.532 33.086 68.174 29.984Q66.817 26.882 64.394 25.073Q61.971 23.263 58.740 23.263L58.740 23.263Q55.057 23.263 52.989 25.816Q50.921 28.368 50.921 33.150L50.921 33.150Q50.921 36.963 52.246 40.258Q53.570 43.554 55.961 45.525Q58.352 47.496 61.519 47.496ZM77.351 47.819L77.351 47.819Q77.157 47.819 77.157 47.431Q77.157 47.044 77.351 47.044L77.351 47.044Q80.000 47.044 80.775 46.204Q81.551 45.363 81.551 42.585L81.551 42.585L81.551 9.047Q81.551 6.721 81.099 5.654Q80.646 4.588 79.483 4.588L79.483 4.588Q78.449 4.588 76.381 5.557L76.381 5.557Q76.123 5.687 75.961 5.299Q75.800 4.911 76.058 4.847L76.058 4.847L84.006 1.034Q84.136 0.969 84.330 0.969L84.330 0.969Q84.459 0.969 84.620 1.099Q84.782 1.228 84.782 1.422L84.782 1.422L84.782 42.585Q84.782 45.299 85.525 46.171Q86.268 47.044 88.982 47.044L88.982 47.044Q89.176 47.044 89.176 47.431Q89.176 47.819 88.982 47.819L88.982 47.819Q87.884 47.819 86.365 47.754Q84.847 47.690 83.166 47.690L83.166 47.690Q81.551 47.690 80.000 47.754Q78.449 47.819 77.351 47.819ZM102.746 48.659L102.746 48.659Q100.097 48.659 97.771 47.108Q95.444 45.557 94.055 42.811Q92.666 40.065 92.666 36.381L92.666 36.381Q92.666 32.763 94.055 30.081Q95.444 27.399 97.641 25.622Q99.838 23.845 102.423 22.940Q105.008 22.036 107.399 22.036L107.399 22.036Q109.661 22.036 111.632 22.843Q113.603 23.651 115.283 25.137L115.283 25.137L114.701 29.273Q113.086 26.817 110.985 25.040Q108.885 23.263 105.460 23.263L105.460 23.263Q101.325 23.263 98.772 26.204Q96.220 29.144 96.220 34.507L96.220 34.507Q96.220 38.126 97.383 40.840Q98.546 43.554 100.549 45.040Q102.553 46.527 105.008 46.527L105.008 46.527Q107.981 46.527 110.307 44.847Q112.633 43.166 114.701 40.840L114.701 40.840L115.218 41.292Q113.861 42.843 112.052 44.556Q110.242 46.268 107.948 47.464Q105.654 48.659 102.746 48.659ZM116.898 1.422L116.898 1.422L116.898 40.840Q116.898 43.166 117.447 44.233Q117.997 45.299 119.354 45.299L119.354 45.299Q120.000 45.299 120.937 45.137Q121.874 44.976 122.908 44.330L122.908 44.330Q123.231 44.200 123.393 44.556Q123.554 44.911 123.231 45.040L123.231 45.040L116.575 48.207Q116.317 48.336 116.058 48.336L116.058 48.336Q115.218 48.336 114.540 46.882Q113.861 45.428 113.861 42.585L113.861 42.585L113.861 9.111Q113.861 6.785 113.409 5.719Q112.956 4.653 111.664 4.653L111.664 4.653Q111.082 4.653 110.372 4.911Q109.661 5.170 108.562 5.622L108.562 5.622Q108.304 5.751 108.142 5.363Q107.981 4.976 108.239 4.911L108.239 4.911L116.123 1.034Q116.252 0.969 116.446 0.969L116.446 0.969Q116.575 0.969 116.737 1.099Q116.898 1.228 116.898 1.422ZM129.047 43.813L129.047 43.813Q130.921 43.813 131.987 45.170Q133.053 46.527 133.053 49.305L133.053 49.305Q133.053 52.149 131.858 54.604Q130.662 57.060 128.595 59.386L128.595 59.386Q128.336 59.580 128.142 59.354Q127.948 59.128 128.078 58.934L128.078 58.934Q129.564 56.801 129.952 55.024Q130.339 53.247 130.339 51.309L130.339 51.309Q130.339 49.435 129.758 48.336Q129.176 47.237 128.465 46.527L128.465 46.527L130.921 46.074Q130.985 47.173 130.339 47.754Q129.693 48.336 128.724 48.336L128.724 48.336Q127.625 48.336 127.011 47.722Q126.397 47.108 126.397 46.074L126.397 46.074Q126.397 44.976 127.044 44.394Q127.690 43.813 129.047 43.813ZM166.074 48.659L166.074 48.659Q163.619 48.659 161.228 47.884Q158.837 47.108 156.511 45.170L156.511 45.170L159.289 39.871Q159.289 42.649 160.808 44.330Q162.326 46.010 164.426 46.721Q166.527 47.431 168.207 47.431L168.207 47.431Q172.213 47.431 174.475 44.523Q176.737 41.616 176.737 36.058L176.737 36.058Q176.737 30.048 174.281 26.947Q171.826 23.845 168.142 23.845L168.142 23.845Q165.299 23.845 162.940 25.687Q160.582 27.528 158.514 29.855L158.514 29.855L157.997 29.402Q159.354 27.851 161.099 26.139Q162.843 24.426 165.073 23.231Q167.302 22.036 170.081 22.036L170.081 22.036Q172.795 22.036 175.121 23.360Q177.447 24.685 178.901 27.334Q180.355 29.984 180.355 33.990L180.355 33.990Q180.355 38.901 178.255 42.165Q176.155 45.428 172.859 47.044Q169.564 48.659 166.074 48.659ZM159.289 44.976L152.698 48.078Q152.439 48.142 152.310 47.884Q152.181 47.625 152.375 47.431L152.375 47.431Q154.313 46.074 155.283 44.911Q156.252 43.748 156.252 41.163L156.252 41.163L156.252 9.111Q156.252 6.785 155.800 5.719Q155.347 4.653 154.120 4.653L154.120 4.653Q153.021 4.653 151.018 5.557L151.018 5.557Q150.759 5.687 150.630 5.299Q150.501 4.911 150.759 4.847L150.759 4.847L158.514 1.034Q158.708 0.969 158.837 0.969L158.837 0.969Q158.966 0.969 159.128 1.099Q159.289 1.228 159.289 1.422L159.289 1.422L159.289 44.976ZM209.564 22.876L209.564 22.876Q209.758 22.876 209.758 23.263Q209.758 23.651 209.564 23.651L209.564 23.651Q208.078 23.651 206.979 24.556Q205.880 25.460 204.911 28.110L204.911 28.110L196.834 49.628Q194.507 55.832 192.375 59.418Q190.242 63.005 187.948 64.491Q185.654 65.977 182.746 65.977L182.746 65.977Q181.519 65.977 180.582 65.396Q179.645 64.814 179.645 63.586L179.645 63.586Q179.645 62.811 180.194 62.391Q180.743 61.971 181.389 61.971L181.389 61.971Q182.682 61.971 183.360 62.326Q184.039 62.682 184.653 63.069Q185.267 63.457 186.300 63.457L186.300 63.457Q187.916 63.457 189.402 61.971Q190.889 60.485 192.601 56.931Q194.313 53.376 196.640 47.237L196.640 47.237L196.640 48.659L186.624 28.239Q185.202 25.396 184.394 24.523Q183.586 23.651 182.359 23.651L182.359 23.651Q182.229 23.651 182.229 23.263Q182.229 22.876 182.359 22.876L182.359 22.876Q183.328 22.876 184.362 22.940Q185.396 23.005 186.365 23.005L186.365 23.005Q188.433 23.005 190.016 22.940Q191.599 22.876 192.892 22.876L192.892 22.876Q193.021 22.876 193.021 23.263Q193.021 23.651 192.892 23.651L192.892 23.651Q190.889 23.651 189.693 24.168Q188.498 24.685 189.273 26.171L189.273 26.171L198.320 44.717L197.027 47.108L203.554 28.368Q204.523 25.525 203.489 24.588Q202.456 23.651 198.837 23.651L198.837 23.651Q198.708 23.651 198.708 23.263Q198.708 22.876 198.837 22.876L198.837 22.876Q200.388 22.876 201.777 22.940Q203.166 23.005 205.363 23.005L205.363 23.005Q206.721 23.005 207.561 22.940Q208.401 22.876 209.564 22.876Z" fill="#F2EBDF"/><path d="M7.302 127.302L-3.554 128.918Q-3.813 128.982-3.877 128.595Q-3.942 128.207-3.683 128.142L-3.683 128.142Q-2.197 127.884-1.454 127.496Q-0.711 127.108-0.323 126.107Q0.065 125.105 0.388 123.102L0.388 123.102L6.979 86.204Q6.979 86.010 7.367 85.622Q7.754 85.234 8.271 84.653Q8.788 84.071 9.241 83.296Q9.693 82.520 9.887 81.551L9.887 81.551Q9.952 81.292 10.307 81.357Q10.662 81.422 10.598 81.680L10.598 81.680L3.296 122.649Q2.843 125.299 3.619 126.139Q4.394 126.979 7.173 126.591L7.173 126.591Q7.431 126.462 7.528 126.850Q7.625 127.237 7.302 127.302L7.302 127.302ZM9.370 111.212L9.370 111.212Q6.785 111.212 5.687 111.018Q4.588 110.824 3.683 110.630L3.683 110.630L4.330 107.399Q5.557 108.239 7.141 108.821Q8.724 109.402 11.050 109.402L11.050 109.402Q14.087 109.402 16.187 107.787Q18.288 106.171 19.580 103.328Q20.872 100.485 21.325 96.931L21.325 96.931Q21.648 94.669 21.422 92.601Q21.195 90.533 20.032 89.208Q18.869 87.884 16.155 87.884L16.155 87.884Q13.118 87.884 10.113 89.693Q7.108 91.502 3.102 94.669L3.102 94.669Q2.908 94.733 2.649 94.443Q2.391 94.152 2.585 94.087L2.585 94.087Q6.397 90.662 10.468 88.207Q14.540 85.751 18.417 85.751L18.417 85.751Q21.971 85.751 23.522 88.078Q25.073 90.404 24.426 94.798L24.426 94.798Q23.974 98.094 22.520 101.066Q21.066 104.039 18.966 106.333Q16.866 108.627 14.378 109.919Q11.890 111.212 9.370 111.212ZM32.116 110.759L32.116 110.759L31.470 110.695Q31.987 107.916 32.956 104.556Q33.926 101.195 35.218 97.868Q36.511 94.540 37.964 91.761Q39.418 88.982 40.937 87.302Q42.456 85.622 43.877 85.622L43.877 85.622Q44.717 85.622 45.525 86.074Q46.333 86.527 46.817 87.302Q47.302 88.078 47.108 88.982L47.108 88.982Q46.914 89.822 46.430 90.178Q45.945 90.533 45.234 90.533L45.234 90.533Q44.265 90.533 43.845 89.984Q43.425 89.435 43.134 88.885Q42.843 88.336 42.197 88.336L42.197 88.336Q41.228 88.336 40.097 89.887Q38.966 91.438 37.738 93.958Q36.511 96.478 35.412 99.483Q34.313 102.488 33.441 105.460Q32.569 108.433 32.116 110.759ZM30.501 111.664L30.501 111.664Q29.661 111.664 29.435 111.567Q29.208 111.470 29.208 111.276L29.208 111.276Q29.208 111.082 29.564 109.435Q29.919 107.787 30.178 106.365L30.178 106.365L32.181 95.057Q32.763 92.084 32.633 90.598Q32.504 89.111 32.019 88.562Q31.535 88.013 30.953 88.013L30.953 88.013Q29.984 88.013 28.918 88.788Q27.851 89.564 27.011 90.339L27.011 90.339Q26.882 90.468 26.624 90.242Q26.365 90.016 26.494 89.822L26.494 89.822Q28.304 87.754 29.952 86.688Q31.599 85.622 33.215 85.622L33.215 85.622Q34.313 85.622 34.927 86.397Q35.541 87.173 35.606 89.208Q35.670 91.244 34.960 95.057L34.960 95.057L32.116 110.759Q31.987 111.664 30.501 111.664ZM54.798 112.052L54.798 112.052Q51.826 112.052 49.855 110.275Q47.884 108.498 47.141 105.460Q46.397 102.423 47.108 98.675L47.108 98.675Q47.819 94.927 49.790 91.922Q51.761 88.918 54.572 87.141Q57.383 85.363 60.549 85.363L60.549 85.363Q63.845 85.363 65.848 87.205Q67.851 89.047 68.498 92.084Q69.144 95.121 68.433 98.675L68.433 98.675Q67.658 102.682 65.525 105.719Q63.393 108.756 60.549 110.404Q57.706 112.052 54.798 112.052ZM57.060 110.436L57.060 110.436Q59.903 110.436 62.294 108.110Q64.685 105.784 65.460 101.519L65.460 101.519Q65.913 99.257 65.751 96.737Q65.590 94.216 64.782 91.987Q63.974 89.758 62.456 88.336Q60.937 86.914 58.675 86.914L58.675 86.914Q55.767 86.914 53.344 89.370Q50.921 91.826 50.081 95.897L50.081 95.897Q49.564 98.288 49.758 100.808Q49.952 103.328 50.824 105.525Q51.696 107.722 53.279 109.079Q54.863 110.436 57.060 110.436ZM76.834 127.302L65.977 128.918Q65.719 128.982 65.654 128.595Q65.590 128.207 65.848 128.142L65.848 128.142Q67.334 127.884 68.078 127.496Q68.821 127.108 69.208 126.107Q69.596 125.105 69.919 123.102L69.919 123.102L76.511 86.204Q76.511 86.010 76.898 85.622Q77.286 85.234 77.803 84.653Q78.320 84.071 78.772 83.296Q79.225 82.520 79.418 81.551L79.418 81.551Q79.483 81.292 79.838 81.357Q80.194 81.422 80.129 81.680L80.129 81.680L72.827 122.649Q72.375 125.299 73.150 126.139Q73.926 126.979 76.704 126.591L76.704 126.591Q76.963 126.462 77.060 126.850Q77.157 127.237 76.834 127.302L76.834 127.302ZM78.901 111.212L78.901 111.212Q76.317 111.212 75.218 111.018Q74.120 110.824 73.215 110.630L73.215 110.630L73.861 107.399Q75.089 108.239 76.672 108.821Q78.255 109.402 80.582 109.402L80.582 109.402Q83.619 109.402 85.719 107.787Q87.819 106.171 89.111 103.328Q90.404 100.485 90.856 96.931L90.856 96.931Q91.179 94.669 90.953 92.601Q90.727 90.533 89.564 89.208Q88.401 87.884 85.687 87.884L85.687 87.884Q82.649 87.884 79.645 89.693Q76.640 91.502 72.633 94.669L72.633 94.669Q72.439 94.733 72.181 94.443Q71.922 94.152 72.116 94.087L72.116 94.087Q75.929 90.662 80 88.207Q84.071 85.751 87.948 85.751L87.948 85.751Q91.502 85.751 93.053 88.078Q94.604 90.404 93.958 94.798L93.958 94.798Q93.506 98.094 92.052 101.066Q90.598 104.039 88.498 106.333Q86.397 108.627 83.910 109.919Q81.422 111.212 78.901 111.212ZM104.750 112.052L104.750 112.052Q101.777 112.052 99.806 110.275Q97.835 108.498 97.092 105.460Q96.349 102.423 97.060 98.675L97.060 98.675Q97.771 94.927 99.742 91.922Q101.712 88.918 104.523 87.141Q107.334 85.363 110.501 85.363L110.501 85.363Q113.796 85.363 115.800 87.205Q117.803 89.047 118.449 92.084Q119.095 95.121 118.384 98.675L118.384 98.675Q117.609 102.682 115.477 105.719Q113.344 108.756 110.501 110.404Q107.658 112.052 104.750 112.052ZM107.011 110.436L107.011 110.436Q109.855 110.436 112.246 108.110Q114.637 105.784 115.412 101.519L115.412 101.519Q115.864 99.257 115.703 96.737Q115.541 94.216 114.733 91.987Q113.926 89.758 112.407 88.336Q110.889 86.914 108.627 86.914L108.627 86.914Q105.719 86.914 103.296 89.370Q100.872 91.826 100.032 95.897L100.032 95.897Q99.515 98.288 99.709 100.808Q99.903 103.328 100.775 105.525Q101.648 107.722 103.231 109.079Q104.814 110.436 107.011 110.436ZM126.268 110.759L126.268 110.759L125.622 110.695Q126.139 107.916 127.108 104.556Q128.078 101.195 129.370 97.868Q130.662 94.540 132.116 91.761Q133.570 88.982 135.089 87.302Q136.607 85.622 138.029 85.622L138.029 85.622Q138.869 85.622 139.677 86.074Q140.485 86.527 140.969 87.302Q141.454 88.078 141.260 88.982L141.260 88.982Q141.066 89.822 140.582 90.178Q140.097 90.533 139.386 90.533L139.386 90.533Q138.417 90.533 137.997 89.984Q137.577 89.435 137.286 88.885Q136.995 88.336 136.349 88.336L136.349 88.336Q135.380 88.336 134.249 89.887Q133.118 91.438 131.890 93.958Q130.662 96.478 129.564 99.483Q128.465 102.488 127.593 105.460Q126.721 108.433 126.268 110.759ZM124.653 111.664L124.653 111.664Q123.813 111.664 123.586 111.567Q123.360 111.470 123.360 111.276L123.360 111.276Q123.360 111.082 123.716 109.435Q124.071 107.787 124.330 106.365L124.330 106.365L126.333 95.057Q126.914 92.084 126.785 90.598Q126.656 89.111 126.171 88.562Q125.687 88.013 125.105 88.013L125.105 88.013Q124.136 88.013 123.069 88.788Q122.003 89.564 121.163 90.339L121.163 90.339Q121.034 90.468 120.775 90.242Q120.517 90.016 120.646 89.822L120.646 89.822Q122.456 87.754 124.103 86.688Q125.751 85.622 127.367 85.622L127.367 85.622Q128.465 85.622 129.079 86.397Q129.693 87.173 129.758 89.208Q129.822 91.244 129.111 95.057L129.111 95.057L126.268 110.759Q126.139 111.664 124.653 111.664ZM147.981 111.922L147.981 111.922Q146.817 111.922 145.751 111.438Q144.685 110.953 144.168 109.822Q143.651 108.691 143.974 106.753L143.974 106.753L146.817 91.373Q147.270 88.918 146.914 88.368Q146.559 87.819 144.620 87.819L144.620 87.819Q144.362 87.819 144.426 87.431Q144.491 87.044 144.685 87.044L144.685 87.044Q146.753 87.044 148.271 85.687Q149.790 84.330 150.178 82.262L150.178 82.262Q150.178 82.068 150.727 82.068Q151.276 82.068 151.212 82.262L151.212 82.262L147.205 104.556Q146.688 107.270 147.399 108.530Q148.110 109.790 150.113 109.790L150.113 109.790Q152.181 109.790 153.700 108.853Q155.218 107.916 156.575 106.753L156.575 106.753Q156.704 106.624 156.963 106.882Q157.221 107.141 157.092 107.270L157.092 107.270Q154.184 109.790 152.019 110.856Q149.855 111.922 147.981 111.922ZM157.157 88.982L157.157 88.982Q156.963 88.982 155.670 88.821Q154.378 88.659 152.666 88.498Q150.953 88.336 149.402 88.336L149.402 88.336L149.532 86.914Q151.018 86.914 153.021 86.785Q155.024 86.656 156.704 86.559Q158.384 86.462 158.772 86.462L158.772 86.462Q159.031 86.462 159.160 86.591Q159.289 86.721 159.225 86.979L159.225 86.979Q159.095 87.496 158.449 88.239Q157.803 88.982 157.157 88.982ZM165.363 111.729L165.363 111.729Q163.942 111.729 163.457 110.436Q162.973 109.144 163.683 105.396L163.683 105.396L166.333 91.955Q167.108 88.013 165.234 88.013L165.234 88.013Q164.459 88.013 163.231 88.788Q162.003 89.564 160.582 91.050L160.582 91.050Q160.388 91.309 160.097 91.018Q159.806 90.727 160.065 90.533L160.065 90.533Q162.262 88.078 164.039 86.850Q165.816 85.622 167.431 85.622L167.431 85.622Q168.982 85.622 169.370 87.011Q169.758 88.401 169.047 91.955L169.047 91.955L166.462 105.396Q166.074 107.399 166.397 108.368Q166.721 109.338 167.561 109.338L167.561 109.338Q168.271 109.338 169.499 108.562Q170.727 107.787 172.149 106.300L172.149 106.300Q172.407 106.042 172.666 106.333Q172.924 106.624 172.666 106.817L172.666 106.817Q170.533 109.273 168.756 110.501Q166.979 111.729 165.363 111.729ZM169.370 77.738L169.370 77.738Q168.142 77.738 167.464 77.092Q166.785 76.446 166.785 75.218L166.785 75.218Q166.785 74.120 167.464 73.473Q168.142 72.827 169.370 72.827L169.370 72.827Q170.598 72.827 171.244 73.473Q171.890 74.120 171.890 75.218L171.890 75.218Q171.890 77.738 169.370 77.738ZM183.134 112.052L183.134 112.052Q180.162 112.052 178.191 110.275Q176.220 108.498 175.477 105.460Q174.733 102.423 175.444 98.675L175.444 98.675Q176.155 94.927 178.126 91.922Q180.097 88.918 182.908 87.141Q185.719 85.363 188.885 85.363L188.885 85.363Q192.181 85.363 194.184 87.205Q196.187 89.047 196.834 92.084Q197.480 95.121 196.769 98.675L196.769 98.675Q195.994 102.682 193.861 105.719Q191.729 108.756 188.885 110.404Q186.042 112.052 183.134 112.052ZM185.396 110.436L185.396 110.436Q188.239 110.436 190.630 108.110Q193.021 105.784 193.796 101.519L193.796 101.519Q194.249 99.257 194.087 96.737Q193.926 94.216 193.118 91.987Q192.310 89.758 190.792 88.336Q189.273 86.914 187.011 86.914L187.011 86.914Q184.103 86.914 181.680 89.370Q179.257 91.826 178.417 95.897L178.417 95.897Q177.900 98.288 178.094 100.808Q178.288 103.328 179.160 105.525Q180.032 107.722 181.616 109.079Q183.199 110.436 185.396 110.436ZM219.580 111.729L219.580 111.729Q218.029 111.729 217.674 110.339Q217.318 108.950 217.964 105.396L217.964 105.396L219.838 95.121Q221.389 87.561 217.318 87.561L217.318 87.561Q215.186 87.561 212.827 90.275Q210.468 92.989 208.368 98.191Q206.268 103.393 204.911 110.759L204.911 110.759L204.200 110.695Q205.557 103.199 207.819 97.480Q210.081 91.761 213.021 88.562Q215.961 85.363 219.128 85.363L219.128 85.363Q221.906 85.363 222.811 87.334Q223.716 89.305 222.811 93.893L222.811 93.893L220.679 105.396Q220.355 107.399 220.679 108.368Q221.002 109.338 221.842 109.338L221.842 109.338Q222.553 109.338 223.716 108.465Q224.879 107.593 226.300 106.171L226.300 106.171Q226.494 105.913 226.785 106.171Q227.076 106.430 226.817 106.688L226.817 106.688Q224.685 109.079 222.973 110.404Q221.260 111.729 219.580 111.729ZM203.231 111.664L203.231 111.664Q202.391 111.664 202.132 111.567Q201.874 111.470 201.874 111.276L201.874 111.276Q201.874 111.082 202.229 109.564Q202.585 108.045 202.843 106.365L202.843 106.365L205.493 91.955Q206.139 88.013 204.394 88.013L204.394 88.013Q203.619 88.013 202.391 88.788Q201.163 89.564 199.742 91.050L199.742 91.050Q199.548 91.309 199.257 91.018Q198.966 90.727 199.225 90.533L199.225 90.533Q201.357 88.078 203.199 86.850Q205.040 85.622 206.656 85.622L206.656 85.622Q208.142 85.622 208.498 87.011Q208.853 88.401 208.207 91.955L208.207 91.955L204.911 110.759Q204.782 111.664 203.231 111.664ZM231.018 111.858L231.018 111.858Q229.855 111.858 229.176 111.179Q228.498 110.501 228.498 109.338L228.498 109.338Q228.498 108.239 229.176 107.593Q229.855 106.947 231.018 106.947L231.018 106.947Q232.246 106.947 232.892 107.593Q233.538 108.239 233.538 109.338L233.538 109.338Q233.538 111.858 231.018 111.858Z" fill="#F2EBDF"/><path d="M2.184 137.147L0.378 137.147L0.378 134.215L2.184 134.215L2.184 134.522L0.731 134.522L0.731 135.509L2.134 135.509L2.134 135.816L0.731 135.816L0.731 136.840L2.184 136.840L2.184 137.147ZM5.355 137.147L3.612 137.147L3.612 134.215L3.965 134.215L3.965 136.840L5.355 136.840L5.355 137.147ZM8.383 137.147L6.569 137.147L6.569 136.866L7.300 136.866L7.300 134.497L6.569 134.497L6.569 134.215L8.383 134.215L8.383 134.497L7.652 134.497L7.652 136.866L8.383 136.866L8.383 137.147ZM11.189 137.147L11.189 136.756L11.168 136.756Q11.130 136.840 11.080 136.920Q11.029 137.000 10.952 137.061Q10.874 137.122 10.765 137.160Q10.655 137.197 10.504 137.197L10.504 137.197Q10.025 137.197 9.792 136.811Q9.559 136.425 9.559 135.702L9.559 135.702Q9.559 134.946 9.815 134.556Q10.072 134.165 10.605 134.165L10.605 134.165Q10.811 134.165 10.962 134.220Q11.113 134.274 11.220 134.367Q11.327 134.459 11.399 134.575Q11.470 134.690 11.516 134.808L11.516 134.808L11.214 134.946Q11.176 134.850 11.128 134.764Q11.080 134.677 11.010 134.612Q10.941 134.547 10.844 134.509Q10.748 134.472 10.618 134.472L10.618 134.472Q10.265 134.472 10.099 134.736Q9.933 135.001 9.933 135.442L9.933 135.442L9.933 135.895Q9.933 136.118 9.967 136.301Q10.000 136.483 10.078 136.618Q10.156 136.752 10.280 136.826Q10.403 136.899 10.584 136.899L10.584 136.899Q10.870 136.899 11.029 136.727Q11.189 136.555 11.189 136.282L11.189 136.282L11.189 135.979L10.571 135.979L10.571 135.698L11.516 135.698L11.516 137.147L11.189 137.147ZM14.599 137.147L12.785 137.147L12.785 136.866L13.516 136.866L13.516 134.497L12.785 134.497L12.785 134.215L14.599 134.215L14.599 134.497L13.868 134.497L13.868 136.866L14.599 136.866L14.599 137.147ZM15.876 134.215L16.229 134.215L16.229 135.975Q16.229 136.189 16.241 136.357Q16.254 136.525 16.309 136.645Q16.363 136.765 16.479 136.828Q16.594 136.891 16.800 136.891L16.800 136.891Q17.006 136.891 17.121 136.828Q17.237 136.765 17.291 136.645Q17.346 136.525 17.359 136.357Q17.371 136.189 17.371 135.975L17.371 135.975L17.371 134.215L17.724 134.215L17.724 135.891Q17.724 136.219 17.693 136.462Q17.661 136.706 17.562 136.870Q17.464 137.034 17.281 137.116Q17.098 137.197 16.800 137.197L16.800 137.197Q16.502 137.197 16.319 137.116Q16.136 137.034 16.038 136.870Q15.939 136.706 15.908 136.462Q15.876 136.219 15.876 135.891L15.876 135.891L15.876 134.215ZM19.900 137.197L19.900 137.197Q19.505 137.197 19.253 137.053Q19.001 136.908 18.837 136.681L18.837 136.681L19.093 136.471Q19.265 136.685 19.457 136.790Q19.648 136.895 19.912 136.895L19.912 136.895Q20.231 136.895 20.399 136.748Q20.567 136.601 20.567 136.336L20.567 136.336Q20.567 136.122 20.446 136.003Q20.324 135.883 20.021 135.832L20.021 135.832L19.694 135.778Q19.480 135.740 19.335 135.664Q19.190 135.589 19.102 135.482Q19.013 135.375 18.976 135.247Q18.938 135.118 18.938 134.980L18.938 134.980Q18.938 134.577 19.202 134.371Q19.467 134.165 19.916 134.165L19.916 134.165Q20.269 134.165 20.511 134.283Q20.752 134.400 20.899 134.614L20.899 134.614L20.651 134.829Q20.530 134.669 20.357 134.568Q20.185 134.467 19.912 134.467L19.912 134.467Q19.614 134.467 19.454 134.593Q19.295 134.719 19.295 134.971L19.295 134.971Q19.295 135.169 19.415 135.293Q19.534 135.417 19.845 135.471L19.845 135.471L20.160 135.526Q20.374 135.564 20.521 135.639Q20.668 135.715 20.759 135.820Q20.849 135.925 20.887 136.055Q20.924 136.185 20.924 136.328L20.924 136.328Q20.924 136.735 20.658 136.966Q20.391 137.197 19.900 137.197ZM26.124 137.197L26.124 137.197Q25.855 137.197 25.662 137.095Q25.469 136.992 25.343 136.798Q25.217 136.605 25.158 136.324Q25.099 136.042 25.099 135.681L25.099 135.681Q25.099 135.324 25.158 135.041Q25.217 134.757 25.343 134.564Q25.469 134.371 25.662 134.268Q25.855 134.165 26.124 134.165L26.124 134.165Q26.393 134.165 26.586 134.268Q26.779 134.371 26.905 134.564Q27.031 134.757 27.090 135.041Q27.149 135.324 27.149 135.681L27.149 135.681Q27.149 136.042 27.090 136.324Q27.031 136.605 26.905 136.798Q26.779 136.992 26.586 137.095Q26.393 137.197 26.124 137.197ZM26.124 136.891L26.124 136.891Q26.300 136.891 26.422 136.822Q26.544 136.752 26.624 136.626Q26.704 136.500 26.739 136.322Q26.775 136.143 26.775 135.921L26.775 135.921L26.775 135.442Q26.775 135.223 26.739 135.043Q26.704 134.862 26.624 134.736Q26.544 134.610 26.422 134.541Q26.300 134.472 26.124 134.472L26.124 134.472Q25.948 134.472 25.826 134.541Q25.704 134.610 25.624 134.736Q25.544 134.862 25.509 135.043Q25.473 135.223 25.473 135.442L25.473 135.442L25.473 135.921Q25.473 136.143 25.509 136.322Q25.544 136.500 25.624 136.626Q25.704 136.752 25.826 136.822Q25.948 136.891 26.124 136.891ZM28.703 137.147L28.350 137.147L28.350 134.215L30.198 134.215L30.198 134.522L28.703 134.522L28.703 135.509L30.072 135.509L30.072 135.816L28.703 135.816L28.703 137.147ZM35.872 137.147L34.873 134.677L34.843 134.677L34.843 137.147L34.524 137.147L34.524 134.215L35.024 134.215L36.023 136.685L36.053 136.685L36.053 134.215L36.372 134.215L36.372 137.147L35.872 137.147ZM38.556 137.197L38.556 137.197Q38.287 137.197 38.094 137.095Q37.901 136.992 37.775 136.798Q37.649 136.605 37.590 136.324Q37.531 136.042 37.531 135.681L37.531 135.681Q37.531 135.324 37.590 135.041Q37.649 134.757 37.775 134.564Q37.901 134.371 38.094 134.268Q38.287 134.165 38.556 134.165L38.556 134.165Q38.825 134.165 39.018 134.268Q39.211 134.371 39.337 134.564Q39.463 134.757 39.522 135.041Q39.581 135.324 39.581 135.681L39.581 135.681Q39.581 136.042 39.522 136.324Q39.463 136.605 39.337 136.798Q39.211 136.992 39.018 137.095Q38.825 137.197 38.556 137.197ZM38.556 136.891L38.556 136.891Q38.732 136.891 38.854 136.822Q38.976 136.752 39.056 136.626Q39.136 136.500 39.171 136.322Q39.207 136.143 39.207 135.921L39.207 135.921L39.207 135.442Q39.207 135.223 39.171 135.043Q39.136 134.862 39.056 134.736Q38.976 134.610 38.854 134.541Q38.732 134.472 38.556 134.472L38.556 134.472Q38.380 134.472 38.258 134.541Q38.136 134.610 38.056 134.736Q37.976 134.862 37.941 135.043Q37.905 135.223 37.905 135.442L37.905 135.442L37.905 135.921Q37.905 136.143 37.941 136.322Q37.976 136.500 38.056 136.626Q38.136 136.752 38.258 136.822Q38.380 136.891 38.556 136.891ZM41.840 137.147L41.488 137.147L41.488 135.996L40.475 134.215L40.879 134.215L41.299 134.980L41.656 135.648L41.672 135.648L42.038 134.980L42.458 134.215L42.853 134.215L41.840 135.996L41.840 137.147ZM44.772 137.197L44.772 137.197Q44.503 137.197 44.310 137.095Q44.117 136.992 43.991 136.798Q43.865 136.605 43.806 136.324Q43.747 136.042 43.747 135.681L43.747 135.681Q43.747 135.324 43.806 135.041Q43.865 134.757 43.991 134.564Q44.117 134.371 44.310 134.268Q44.503 134.165 44.772 134.165L44.772 134.165Q45.041 134.165 45.234 134.268Q45.427 134.371 45.553 134.564Q45.679 134.757 45.738 135.041Q45.797 135.324 45.797 135.681L45.797 135.681Q45.797 136.042 45.738 136.324Q45.679 136.605 45.553 136.798Q45.427 136.992 45.234 137.095Q45.041 137.197 44.772 137.197ZM44.772 136.891L44.772 136.891Q44.948 136.891 45.070 136.822Q45.192 136.752 45.272 136.626Q45.352 136.500 45.387 136.322Q45.423 136.143 45.423 135.921L45.423 135.921L45.423 135.442Q45.423 135.223 45.387 135.043Q45.352 134.862 45.272 134.736Q45.192 134.610 45.070 134.541Q44.948 134.472 44.772 134.472L44.772 134.472Q44.596 134.472 44.474 134.541Q44.352 134.610 44.272 134.736Q44.192 134.862 44.157 135.043Q44.121 135.223 44.121 135.442L44.121 135.442L44.121 135.921Q44.121 136.143 44.157 136.322Q44.192 136.500 44.272 136.626Q44.352 136.752 44.474 136.822Q44.596 136.891 44.772 136.891ZM48.304 137.147L47.305 134.677L47.275 134.677L47.275 137.147L46.956 137.147L46.956 134.215L47.456 134.215L48.455 136.685L48.485 136.685L48.485 134.215L48.804 134.215L48.804 137.147L48.304 137.147ZM54.096 136.160L54.096 136.160Q53.924 136.160 53.855 136.089Q53.785 136.017 53.785 135.908L53.785 135.908L53.785 135.832Q53.785 135.723 53.855 135.652Q53.924 135.580 54.096 135.580L54.096 135.580Q54.268 135.580 54.338 135.652Q54.407 135.723 54.407 135.832L54.407 135.832L54.407 135.908Q54.407 136.017 54.338 136.089Q54.268 136.160 54.096 136.160ZM59.783 137.147L59.430 137.147L59.430 134.215L60.497 134.215Q60.904 134.215 61.118 134.438Q61.333 134.661 61.333 135.060L61.333 135.060Q61.333 135.459 61.118 135.681Q60.904 135.904 60.497 135.904L60.497 135.904L59.783 135.904L59.783 137.147ZM59.783 134.522L59.783 135.597L60.488 135.597Q60.711 135.597 60.835 135.486Q60.959 135.375 60.959 135.169L60.959 135.169L60.959 134.950Q60.959 134.745 60.835 134.633Q60.711 134.522 60.488 134.522L60.488 134.522L59.783 134.522ZM64.554 137.147L64.180 137.147L63.932 136.311L62.903 136.311L62.656 137.147L62.290 137.147L63.189 134.215L63.655 134.215L64.554 137.147ZM63.848 136.005L63.437 134.589L63.399 134.589L62.987 136.005L63.848 136.005ZM67.683 134.522L66.704 134.522L66.704 137.147L66.352 137.147L66.352 134.522L65.373 134.522L65.373 134.215L67.683 134.215L67.683 134.522ZM69.107 135.895L69.107 137.147L68.754 137.147L68.754 134.215L69.821 134.215Q70.228 134.215 70.442 134.438Q70.657 134.661 70.657 135.060L70.657 135.060Q70.657 135.417 70.472 135.631Q70.287 135.845 69.934 135.879L69.934 135.879L70.682 137.147L70.287 137.147L69.573 135.895L69.107 135.895ZM69.107 135.597L69.812 135.597Q70.035 135.597 70.159 135.486Q70.283 135.375 70.283 135.169L70.283 135.169L70.283 134.950Q70.283 134.745 70.159 134.633Q70.035 134.522 69.812 134.522L69.812 134.522L69.107 134.522L69.107 135.597ZM72.744 137.197L72.744 137.197Q72.475 137.197 72.282 137.095Q72.089 136.992 71.963 136.798Q71.837 136.605 71.778 136.324Q71.719 136.042 71.719 135.681L71.719 135.681Q71.719 135.324 71.778 135.041Q71.837 134.757 71.963 134.564Q72.089 134.371 72.282 134.268Q72.475 134.165 72.744 134.165L72.744 134.165Q73.013 134.165 73.206 134.268Q73.399 134.371 73.525 134.564Q73.651 134.757 73.710 135.041Q73.769 135.324 73.769 135.681L73.769 135.681Q73.769 136.042 73.710 136.324Q73.651 136.605 73.525 136.798Q73.399 136.992 73.206 137.095Q73.013 137.197 72.744 137.197ZM72.744 136.891L72.744 136.891Q72.920 136.891 73.042 136.822Q73.164 136.752 73.244 136.626Q73.324 136.500 73.359 136.322Q73.395 136.143 73.395 135.921L73.395 135.921L73.395 135.442Q73.395 135.223 73.359 135.043Q73.324 134.862 73.244 134.736Q73.164 134.610 73.042 134.541Q72.920 134.472 72.744 134.472L72.744 134.472Q72.568 134.472 72.446 134.541Q72.324 134.610 72.244 134.736Q72.164 134.862 72.129 135.043Q72.093 135.223 72.093 135.442L72.093 135.442L72.093 135.921Q72.093 136.143 72.129 136.322Q72.164 136.500 72.244 136.626Q72.324 136.752 72.446 136.822Q72.568 136.891 72.744 136.891ZM76.276 137.147L75.277 134.677L75.247 134.677L75.247 137.147L74.928 137.147L74.928 134.215L75.428 134.215L76.427 136.685L76.457 136.685L76.457 134.215L76.776 134.215L76.776 137.147L76.276 137.147ZM82.068 137.197L82.068 137.197Q81.799 137.197 81.606 137.095Q81.413 136.992 81.287 136.798Q81.161 136.605 81.102 136.324Q81.043 136.042 81.043 135.681L81.043 135.681Q81.043 135.324 81.102 135.041Q81.161 134.757 81.287 134.564Q81.413 134.371 81.606 134.268Q81.799 134.165 82.068 134.165L82.068 134.165Q82.337 134.165 82.530 134.268Q82.723 134.371 82.849 134.564Q82.975 134.757 83.034 135.041Q83.093 135.324 83.093 135.681L83.093 135.681Q83.093 136.042 83.034 136.324Q82.975 136.605 82.849 136.798Q82.723 136.992 82.530 137.095Q82.337 137.197 82.068 137.197ZM82.068 136.891L82.068 136.891Q82.244 136.891 82.366 136.822Q82.488 136.752 82.568 136.626Q82.648 136.500 82.683 136.322Q82.719 136.143 82.719 135.921L82.719 135.921L82.719 135.442Q82.719 135.223 82.683 135.043Q82.648 134.862 82.568 134.736Q82.488 134.610 82.366 134.541Q82.244 134.472 82.068 134.472L82.068 134.472Q81.892 134.472 81.770 134.541Q81.648 134.610 81.568 134.736Q81.488 134.862 81.453 135.043Q81.417 135.223 81.417 135.442L81.417 135.442L81.417 135.921Q81.417 136.143 81.453 136.322Q81.488 136.500 81.568 136.626Q81.648 136.752 81.770 136.822Q81.892 136.891 82.068 136.891ZM84.647 137.147L84.294 137.147L84.294 134.215L86.142 134.215L86.142 134.522L84.647 134.522L84.647 135.509L86.016 135.509L86.016 135.816L84.647 135.816L84.647 137.147ZM91.997 137.147L91.997 136.756L91.976 136.756Q91.938 136.840 91.888 136.920Q91.837 137.000 91.759 137.061Q91.682 137.122 91.573 137.160Q91.463 137.197 91.312 137.197L91.312 137.197Q90.833 137.197 90.600 136.811Q90.367 136.425 90.367 135.702L90.367 135.702Q90.367 134.946 90.623 134.556Q90.880 134.165 91.413 134.165L91.413 134.165Q91.619 134.165 91.770 134.220Q91.921 134.274 92.028 134.367Q92.135 134.459 92.207 134.575Q92.278 134.690 92.324 134.808L92.324 134.808L92.022 134.946Q91.984 134.850 91.936 134.764Q91.888 134.677 91.818 134.612Q91.749 134.547 91.652 134.509Q91.556 134.472 91.426 134.472L91.426 134.472Q91.073 134.472 90.907 134.736Q90.741 135.001 90.741 135.442L90.741 135.442L90.741 135.895Q90.741 136.118 90.775 136.301Q90.808 136.483 90.886 136.618Q90.964 136.752 91.087 136.826Q91.211 136.899 91.392 136.899L91.392 136.899Q91.678 136.899 91.837 136.727Q91.997 136.555 91.997 136.282L91.997 136.282L91.997 135.979L91.379 135.979L91.379 135.698L92.324 135.698L92.324 137.147L91.997 137.147ZM94.500 137.197L94.500 137.197Q94.231 137.197 94.038 137.095Q93.845 136.992 93.719 136.798Q93.593 136.605 93.534 136.324Q93.475 136.042 93.475 135.681L93.475 135.681Q93.475 135.324 93.534 135.041Q93.593 134.757 93.719 134.564Q93.845 134.371 94.038 134.268Q94.231 134.165 94.500 134.165L94.500 134.165Q94.769 134.165 94.962 134.268Q95.155 134.371 95.281 134.564Q95.407 134.757 95.466 135.041Q95.525 135.324 95.525 135.681L95.525 135.681Q95.525 136.042 95.466 136.324Q95.407 136.605 95.281 136.798Q95.155 136.992 94.962 137.095Q94.769 137.197 94.500 137.197ZM94.500 136.891L94.500 136.891Q94.676 136.891 94.798 136.822Q94.920 136.752 95.000 136.626Q95.080 136.500 95.115 136.322Q95.151 136.143 95.151 135.921L95.151 135.921L95.151 135.442Q95.151 135.223 95.115 135.043Q95.080 134.862 95.000 134.736Q94.920 134.610 94.798 134.541Q94.676 134.472 94.500 134.472L94.500 134.472Q94.324 134.472 94.202 134.541Q94.080 134.610 94.000 134.736Q93.920 134.862 93.885 135.043Q93.849 135.223 93.849 135.442L93.849 135.442L93.849 135.921Q93.849 136.143 93.885 136.322Q93.920 136.500 94.000 136.626Q94.080 136.752 94.202 136.822Q94.324 136.891 94.500 136.891ZM98.595 137.147L96.852 137.147L96.852 134.215L97.205 134.215L97.205 136.840L98.595 136.840L98.595 137.147ZM99.855 137.147L99.855 134.215L100.674 134.215Q101.212 134.215 101.476 134.585Q101.741 134.955 101.741 135.681L101.741 135.681Q101.741 136.408 101.476 136.777Q101.212 137.147 100.674 137.147L100.674 137.147L99.855 137.147ZM100.208 136.840L100.657 136.840Q101.010 136.840 101.188 136.597Q101.367 136.353 101.367 135.908L101.367 135.908L101.367 135.454Q101.367 135.009 101.188 134.766Q101.010 134.522 100.657 134.522L100.657 134.522L100.208 134.522L100.208 136.840ZM103.816 137.197L103.816 137.197Q103.421 137.197 103.169 137.053Q102.917 136.908 102.753 136.681L102.753 136.681L103.009 136.471Q103.181 136.685 103.372 136.790Q103.564 136.895 103.828 136.895L103.828 136.895Q104.147 136.895 104.315 136.748Q104.483 136.601 104.483 136.336L104.483 136.336Q104.483 136.122 104.362 136.003Q104.240 135.883 103.937 135.832L103.937 135.832L103.610 135.778Q103.396 135.740 103.251 135.664Q103.106 135.589 103.018 135.482Q102.929 135.375 102.892 135.247Q102.854 135.118 102.854 134.980L102.854 134.980Q102.854 134.577 103.118 134.371Q103.383 134.165 103.832 134.165L103.832 134.165Q104.185 134.165 104.427 134.283Q104.668 134.400 104.815 134.614L104.815 134.614L104.567 134.829Q104.446 134.669 104.273 134.568Q104.101 134.467 103.828 134.467L103.828 134.467Q103.530 134.467 103.370 134.593Q103.211 134.719 103.211 134.971L103.211 134.971Q103.211 135.169 103.330 135.293Q103.450 135.417 103.761 135.471L103.761 135.471L104.076 135.526Q104.290 135.564 104.437 135.639Q104.584 135.715 104.674 135.820Q104.765 135.925 104.803 136.055Q104.840 136.185 104.840 136.328L104.840 136.328Q104.840 136.735 104.574 136.966Q104.307 137.197 103.816 137.197ZM107.583 137.147L107.583 135.677L107.583 134.749L107.549 134.749L106.932 136.257L106.315 134.749L106.281 134.749L106.281 135.677L106.281 137.147L105.958 137.147L105.958 134.215L106.411 134.215L106.928 135.509L106.953 135.509L107.470 134.215L107.906 134.215L107.906 137.147L107.583 137.147ZM110.947 137.147L109.133 137.147L109.133 136.866L109.864 136.866L109.864 134.497L109.133 134.497L109.133 134.215L110.947 134.215L110.947 134.497L110.216 134.497L110.216 136.866L110.947 136.866L110.947 137.147ZM114.303 134.522L113.324 134.522L113.324 137.147L112.972 137.147L112.972 134.522L111.993 134.522L111.993 134.215L114.303 134.215L114.303 134.522ZM116.827 137.147L116.827 135.816L115.685 135.816L115.685 137.147L115.332 137.147L115.332 134.215L115.685 134.215L115.685 135.509L116.827 135.509L116.827 134.215L117.180 134.215L117.180 137.147L116.827 137.147ZM119.356 137.197L119.356 137.197Q118.961 137.197 118.709 137.053Q118.457 136.908 118.293 136.681L118.293 136.681L118.549 136.471Q118.721 136.685 118.912 136.790Q119.104 136.895 119.368 136.895L119.368 136.895Q119.687 136.895 119.855 136.748Q120.023 136.601 120.023 136.336L120.023 136.336Q120.023 136.122 119.902 136.003Q119.780 135.883 119.477 135.832L119.477 135.832L119.150 135.778Q118.936 135.740 118.791 135.664Q118.646 135.589 118.558 135.482Q118.469 135.375 118.432 135.247Q118.394 135.118 118.394 134.980L118.394 134.980Q118.394 134.577 118.658 134.371Q118.923 134.165 119.372 134.165L119.372 134.165Q119.725 134.165 119.967 134.283Q120.208 134.400 120.355 134.614L120.355 134.614L120.107 134.829Q119.986 134.669 119.813 134.568Q119.641 134.467 119.368 134.467L119.368 134.467Q119.070 134.467 118.910 134.593Q118.751 134.719 118.751 134.971L118.751 134.971Q118.751 135.169 118.870 135.293Q118.990 135.417 119.301 135.471L119.301 135.471L119.616 135.526Q119.830 135.564 119.977 135.639Q120.124 135.715 120.214 135.820Q120.305 135.925 120.343 136.055Q120.380 136.185 120.380 136.328L120.380 136.328Q120.380 136.735 120.114 136.966Q119.847 137.197 119.356 137.197Z" fill="#F2EBDF"/></g>
<g id="sep-brass" data-ink="#B18A46 · Pantone 871 C metallic (screen) · flat #B18A46 (DTG)"><rect x="0" y="123.147" width="70" height="0.8" fill="#B18A46"/></g>
</svg></g>
  </g></g>
<path d="M386.522 915L385.430 915L385.430 905.926L391.150 905.926L391.150 906.875L386.522 906.875L386.522 909.930L390.760 909.930L390.760 910.879L386.522 910.879L386.522 915ZM397.442 911.126L397.442 915L396.350 915L396.350 905.926L399.652 905.926Q400.913 905.926 401.576 906.615Q402.239 907.304 402.239 908.539L402.239 908.539Q402.239 909.644 401.667 910.307Q401.095 910.970 400.003 911.074L400.003 911.074L402.317 915L401.095 915L398.885 911.126L397.442 911.126ZM397.442 910.203L399.626 910.203Q400.315 910.203 400.699 909.859Q401.082 909.514 401.082 908.877L401.082 908.877L401.082 908.201Q401.082 907.564 400.699 907.220Q400.315 906.875 399.626 906.875L399.626 906.875L397.442 906.875L397.442 910.203ZM410.000 915.156L410.000 915.156Q409.168 915.156 408.570 914.837Q407.972 914.519 407.582 913.921Q407.192 913.323 407.010 912.452Q406.828 911.581 406.828 910.463L406.828 910.463Q406.828 909.358 407.010 908.481Q407.192 907.603 407.582 907.005Q407.972 906.407 408.570 906.088Q409.168 905.770 410.000 905.770L410.000 905.770Q410.832 905.770 411.430 906.088Q412.028 906.407 412.418 907.005Q412.808 907.603 412.990 908.481Q413.172 909.358 413.172 910.463L413.172 910.463Q413.172 911.581 412.990 912.452Q412.808 913.323 412.418 913.921Q412.028 914.519 411.430 914.837Q410.832 915.156 410.000 915.156ZM410.000 914.207L410.000 914.207Q410.546 914.207 410.923 913.992Q411.300 913.778 411.547 913.388Q411.794 912.998 411.904 912.446Q412.015 911.893 412.015 911.204L412.015 911.204L412.015 909.722Q412.015 909.046 411.904 908.487Q411.794 907.928 411.547 907.538Q411.300 907.148 410.923 906.933Q410.546 906.719 410.000 906.719L410.000 906.719Q409.454 906.719 409.077 906.933Q408.700 907.148 408.453 907.538Q408.206 907.928 408.095 908.487Q407.985 909.046 407.985 909.722L407.985 909.722L407.985 911.204Q407.985 911.893 408.095 912.446Q408.206 912.998 408.453 913.388Q408.700 913.778 409.077 913.992Q409.454 914.207 410.000 914.207ZM422.233 915L419.139 907.356L419.048 907.356L419.048 915L418.060 915L418.060 905.926L419.607 905.926L422.701 913.570L422.792 913.570L422.792 905.926L423.780 905.926L423.780 915L422.233 915ZM435.415 906.875L432.386 906.875L432.386 915L431.294 915L431.294 906.875L428.265 906.875L428.265 905.926L435.415 905.926L435.415 906.875Z" fill="#0C0B0A"/><path d="M1170.864 915L1170.864 905.926L1173.945 905.926Q1175.115 905.926 1175.778 906.563Q1176.441 907.200 1176.441 908.266L1176.441 908.266Q1176.441 909.085 1176.044 909.553Q1175.648 910.021 1175.024 910.216L1175.024 910.216L1175.024 910.255Q1175.791 910.437 1176.285 910.938Q1176.779 911.438 1176.779 912.387L1176.779 912.387Q1176.779 912.933 1176.597 913.414Q1176.415 913.895 1176.083 914.246Q1175.752 914.597 1175.303 914.798Q1174.855 915 1174.335 915L1174.335 915L1170.864 915ZM1171.956 914.051L1174.010 914.051Q1174.764 914.051 1175.193 913.713Q1175.622 913.375 1175.622 912.673L1175.622 912.673L1175.622 912.140Q1175.622 911.451 1175.193 911.106Q1174.764 910.762 1174.010 910.762L1174.010 910.762L1171.956 910.762L1171.956 914.051ZM1171.956 909.865L1173.828 909.865Q1174.517 909.865 1174.907 909.559Q1175.297 909.254 1175.297 908.630L1175.297 908.630L1175.297 908.123Q1175.297 907.499 1174.907 907.187Q1174.517 906.875 1173.828 906.875L1173.828 906.875L1171.956 906.875L1171.956 909.865ZM1188.050 915L1186.893 915L1186.126 912.413L1182.941 912.413L1182.174 915L1181.043 915L1183.825 905.926L1185.268 905.926L1188.050 915ZM1185.866 911.464L1184.592 907.083L1184.475 907.083L1183.201 911.464L1185.866 911.464ZM1195.759 915.156L1195.759 915.156Q1194.095 915.156 1193.283 913.947Q1192.470 912.738 1192.470 910.463L1192.470 910.463Q1192.470 908.188 1193.283 906.979Q1194.095 905.770 1195.759 905.770L1195.759 905.770Q1196.383 905.770 1196.838 905.939Q1197.293 906.108 1197.618 906.394Q1197.943 906.680 1198.164 907.038Q1198.385 907.395 1198.554 907.759L1198.554 907.759L1197.618 908.188Q1197.501 907.889 1197.345 907.622Q1197.189 907.356 1196.975 907.154Q1196.760 906.953 1196.467 906.836Q1196.175 906.719 1195.759 906.719L1195.759 906.719Q1194.680 906.719 1194.153 907.538Q1193.627 908.357 1193.627 909.722L1193.627 909.722L1193.627 911.204Q1193.627 912.569 1194.153 913.388Q1194.680 914.207 1195.759 914.207L1195.759 914.207Q1196.175 914.207 1196.467 914.090Q1196.760 913.973 1196.975 913.771Q1197.189 913.570 1197.345 913.303Q1197.501 913.037 1197.618 912.738L1197.618 912.738L1198.554 913.167Q1198.385 913.544 1198.164 913.895Q1197.943 914.246 1197.618 914.532Q1197.293 914.818 1196.838 914.987Q1196.383 915.156 1195.759 915.156ZM1208.720 915L1205.977 910.554L1204.677 912.088L1204.677 915L1203.585 915L1203.585 905.926L1204.677 905.926L1204.677 910.658L1204.716 910.658L1205.912 909.150L1208.590 905.926L1209.903 905.926L1206.718 909.748L1209.994 915L1208.720 915Z" fill="#0C0B0A"/>
</svg>