<svg xmlns="http://www.w3.org/2000/svg" width="96mm" height="18mm" viewBox="0 0 96 18">
<title>DE NOYON — Design 38: Hallmark strip</title>
<g id="sep-ink" data-ink="#0C0B0A · Pantone Black 6 C"><rect x="0.35" y="0.35" width="17.3" height="17.3" fill="none" stroke="#0C0B0A" stroke-width="0.7"/><path d="M2.915 10.680L2.392 10.680L2.392 7.423L3.610 7.423Q4.077 7.423 4.322 7.684Q4.567 7.945 4.567 8.403L4.567 8.403Q4.567 8.860 4.322 9.121Q4.077 9.383 3.610 9.383L3.610 9.383L2.915 9.383L2.915 10.680ZM2.915 7.857L2.915 8.949L3.531 8.949Q4.016 8.949 4.016 8.501L4.016 8.501L4.016 8.300Q4.016 7.857 3.531 7.857L3.531 7.857L2.915 7.857ZM7.511 10.680L6.956 10.680L6.709 9.812L5.673 9.812L5.425 10.680L4.893 10.680L5.845 7.423L6.559 7.423L7.511 10.680ZM6.611 9.378L6.209 7.950L6.172 7.950L5.771 9.378L6.611 9.378ZM8.510 9.364L8.510 10.680L7.992 10.680L7.992 7.423L9.210 7.423Q9.677 7.423 9.922 7.684Q10.167 7.945 10.167 8.403L10.167 8.403Q10.167 8.776 9.985 9.019Q9.803 9.261 9.462 9.317L9.462 9.317L10.213 10.680L9.635 10.680L8.944 9.364L8.510 9.364ZM8.510 8.944L9.135 8.944Q9.621 8.944 9.621 8.501L9.621 8.501L9.621 8.300Q9.621 7.857 9.135 7.857L9.135 7.857L8.510 7.857L8.510 8.944ZM12.827 10.680L10.773 10.680L10.773 10.283L11.539 10.283L11.539 7.819L10.773 7.819L10.773 7.423L12.827 7.423L12.827 7.819L12.061 7.819L12.061 10.283L12.827 10.283L12.827 10.680ZM14.572 10.736L14.572 10.736Q14.147 10.736 13.858 10.587Q13.569 10.437 13.382 10.190L13.382 10.190L13.718 9.868Q13.905 10.092 14.115 10.197Q14.325 10.302 14.591 10.302L14.591 10.302Q14.899 10.302 15.064 10.162Q15.230 10.022 15.230 9.761L15.230 9.761Q15.230 9.551 15.109 9.436Q14.987 9.322 14.693 9.271L14.693 9.271L14.339 9.215Q14.105 9.177 13.947 9.091Q13.788 9.005 13.690 8.886Q13.592 8.767 13.548 8.620Q13.503 8.473 13.503 8.309L13.503 8.309Q13.503 7.847 13.802 7.607Q14.101 7.367 14.623 7.367L14.623 7.367Q15.011 7.367 15.284 7.490Q15.557 7.614 15.725 7.838L15.725 7.838L15.398 8.165Q15.263 8.001 15.078 7.901Q14.894 7.801 14.623 7.801L14.623 7.801Q14.334 7.801 14.182 7.924Q14.031 8.048 14.031 8.286L14.031 8.286Q14.031 8.487 14.150 8.601Q14.269 8.715 14.572 8.767L14.572 8.767L14.917 8.827Q15.356 8.907 15.557 9.147Q15.757 9.387 15.757 9.733L15.757 9.733Q15.757 9.957 15.680 10.143Q15.603 10.330 15.452 10.461Q15.300 10.591 15.078 10.664Q14.857 10.736 14.572 10.736Z" fill="#0C0B0A"/><rect x="19.85" y="0.35" width="17.3" height="17.3" fill="none" stroke="#0C0B0A" stroke-width="0.7"/><path d="M25.325 10.800L22.940 10.800L22.940 10.335L23.920 10.335L23.920 7.720L23.880 7.720L23.070 8.585L22.725 8.275L23.615 7.310L24.480 7.310L24.480 10.335L25.325 10.335L25.325 10.800ZM28.235 8.610L28.235 8.610Q28.235 8.990 28.120 9.325Q28.005 9.660 27.820 9.940Q27.635 10.220 27.410 10.440Q27.185 10.660 26.965 10.800L26.965 10.800L26.215 10.800Q26.515 10.585 26.755 10.385Q26.995 10.185 27.172 9.975Q27.350 9.765 27.470 9.533Q27.590 9.300 27.655 9.015L27.655 9.015L27.620 9.005Q27.565 9.110 27.490 9.203Q27.415 9.295 27.315 9.365Q27.215 9.435 27.085 9.475Q26.955 9.515 26.790 9.515L26.790 9.515Q26.565 9.515 26.375 9.440Q26.185 9.365 26.045 9.223Q25.905 9.080 25.828 8.880Q25.750 8.680 25.750 8.430L25.750 8.430Q25.750 8.170 25.837 7.953Q25.925 7.735 26.087 7.580Q26.250 7.425 26.480 7.338Q26.710 7.250 26.990 7.250L26.990 7.250Q27.280 7.250 27.512 7.345Q27.745 7.440 27.905 7.618Q28.065 7.795 28.150 8.045Q28.235 8.295 28.235 8.610ZM26.995 9.070L26.995 9.070Q27.310 9.070 27.485 8.898Q27.660 8.725 27.660 8.410L27.660 8.410L27.660 8.360Q27.660 8.045 27.485 7.873Q27.310 7.700 26.995 7.700L26.995 7.700Q26.675 7.700 26.500 7.873Q26.325 8.045 26.325 8.360L26.325 8.360L26.325 8.410Q26.325 8.725 26.500 8.898Q26.675 9.070 26.995 9.070ZM29.940 10.800L29.345 10.800L30.640 7.775L29.280 7.775L29.280 8.420L28.795 8.420L28.795 7.310L31.200 7.310L31.200 7.800L29.940 10.800ZM33.845 10.800L33.310 10.800L33.310 10.120L31.650 10.120L31.650 9.640L33.110 7.310L33.845 7.310L33.845 9.680L34.335 9.680L34.335 10.120L33.845 10.120L33.845 10.800ZM33.280 7.825L32.125 9.680L33.310 9.680L33.310 7.825L33.280 7.825Z" fill="#0C0B0A"/><path d="M42.792 10.680L41.835 8.174L41.793 8.174L41.793 10.680L41.336 10.680L41.336 7.423L42.008 7.423L42.965 9.929L43.007 9.929L43.007 7.423L43.464 7.423L43.464 10.680L42.792 10.680ZM45.200 10.736L45.200 10.736Q44.934 10.736 44.722 10.647Q44.509 10.559 44.362 10.395Q44.215 10.232 44.136 9.999Q44.057 9.765 44.057 9.476L44.057 9.476Q44.057 9.187 44.136 8.953Q44.215 8.720 44.362 8.557Q44.509 8.393 44.722 8.305Q44.934 8.216 45.200 8.216L45.200 8.216Q45.466 8.216 45.678 8.305Q45.891 8.393 46.038 8.557Q46.185 8.720 46.264 8.953Q46.343 9.187 46.343 9.476L46.343 9.476Q46.343 9.765 46.264 9.999Q46.185 10.232 46.038 10.395Q45.891 10.559 45.678 10.647Q45.466 10.736 45.200 10.736ZM45.200 10.335L45.200 10.335Q45.480 10.335 45.646 10.164Q45.811 9.994 45.811 9.658L45.811 9.658L45.811 9.294Q45.811 8.958 45.646 8.788Q45.480 8.617 45.200 8.617L45.200 8.617Q44.920 8.617 44.754 8.788Q44.589 8.958 44.589 9.294L44.589 9.294L44.589 9.658Q44.589 9.994 44.754 10.164Q44.920 10.335 45.200 10.335ZM48 10.727L48 10.727Q47.776 10.727 47.685 10.633Q47.594 10.540 47.594 10.405L47.594 10.405L47.594 10.283Q47.594 10.148 47.685 10.055Q47.776 9.961 48 9.961L48 9.961Q48.224 9.961 48.315 10.055Q48.406 10.148 48.406 10.283L48.406 10.283L48.406 10.405Q48.406 10.540 48.315 10.633Q48.224 10.727 48 10.727ZM50.800 10.736L50.800 10.736Q50.492 10.736 50.266 10.622Q50.039 10.507 49.892 10.293Q49.745 10.078 49.675 9.765Q49.605 9.453 49.605 9.051L49.605 9.051Q49.605 8.655 49.675 8.340Q49.745 8.025 49.892 7.810Q50.039 7.595 50.266 7.481Q50.492 7.367 50.800 7.367L50.800 7.367Q51.108 7.367 51.334 7.481Q51.561 7.595 51.708 7.810Q51.855 8.025 51.925 8.340Q51.995 8.655 51.995 9.051L51.995 9.051Q51.995 9.453 51.925 9.765Q51.855 10.078 51.708 10.293Q51.561 10.507 51.334 10.622Q51.108 10.736 50.800 10.736ZM50.800 10.307L50.800 10.307Q51.155 10.307 51.306 10.043Q51.458 9.779 51.458 9.331L51.458 9.331L51.458 8.771Q51.458 8.323 51.306 8.060Q51.155 7.796 50.800 7.796L50.800 7.796Q50.623 7.796 50.497 7.864Q50.371 7.931 50.291 8.060Q50.212 8.188 50.177 8.368Q50.142 8.547 50.142 8.771L50.142 8.771L50.142 9.331Q50.142 9.555 50.177 9.735Q50.212 9.915 50.291 10.043Q50.371 10.171 50.497 10.239Q50.623 10.307 50.800 10.307ZM50.800 9.327L50.800 9.327Q50.637 9.327 50.574 9.261Q50.511 9.196 50.511 9.103L50.511 9.103L50.511 9Q50.511 8.907 50.574 8.841Q50.637 8.776 50.800 8.776L50.800 8.776Q50.963 8.776 51.026 8.841Q51.089 8.907 51.089 9L51.089 9L51.089 9.103Q51.089 9.196 51.026 9.261Q50.963 9.327 50.800 9.327ZM54.389 10.680L53.889 10.680L53.889 10.045L52.340 10.045L52.340 9.597L53.703 7.423L54.389 7.423L54.389 9.635L54.846 9.635L54.846 10.045L54.389 10.045L54.389 10.680ZM53.861 7.903L52.783 9.635L53.889 9.635L53.889 7.903L53.861 7.903Z" fill="#0C0B0A"/><rect x="58.85" y="0.35" width="17.3" height="17.3" fill="none" stroke="#0C0B0A" stroke-width="0.7"/><path d="M65.345 10.800L64.810 10.800L64.810 10.120L63.150 10.120L63.150 9.640L64.610 7.310L65.345 7.310L65.345 9.680L65.835 9.680L65.835 10.120L65.345 10.120L65.345 10.800ZM64.780 7.825L63.625 9.680L64.810 9.680L64.810 7.825L64.780 7.825ZM68.555 7.310L68.555 7.795L66.970 7.795L66.880 9.035L66.920 9.035Q67.040 8.830 67.210 8.707Q67.380 8.585 67.675 8.585L67.675 8.585Q67.900 8.585 68.093 8.660Q68.285 8.735 68.427 8.875Q68.570 9.015 68.653 9.218Q68.735 9.420 68.735 9.675L68.735 9.675Q68.735 9.935 68.650 10.152Q68.565 10.370 68.405 10.527Q68.245 10.685 68.010 10.773Q67.775 10.860 67.475 10.860L67.475 10.860Q67.240 10.860 67.058 10.808Q66.875 10.755 66.733 10.668Q66.590 10.580 66.485 10.468Q66.380 10.355 66.300 10.235L66.300 10.235L66.710 9.915Q66.775 10.015 66.847 10.103Q66.920 10.190 67.010 10.255Q67.100 10.320 67.218 10.355Q67.335 10.390 67.485 10.390L67.485 10.390Q67.810 10.390 67.980 10.213Q68.150 10.035 68.150 9.730L68.150 9.730L68.150 9.690Q68.150 9.385 67.978 9.215Q67.805 9.045 67.485 9.045L67.485 9.045Q67.250 9.045 67.115 9.130Q66.980 9.215 66.880 9.320L66.880 9.320L66.415 9.255L66.545 7.310L68.555 7.310ZM70.500 9.030L70.500 9.030Q70.310 9.030 70.147 8.963Q69.985 8.895 69.865 8.775Q69.745 8.655 69.677 8.492Q69.610 8.330 69.610 8.140L69.610 8.140Q69.610 7.950 69.677 7.788Q69.745 7.625 69.865 7.505Q69.985 7.385 70.147 7.318Q70.310 7.250 70.500 7.250L70.500 7.250Q70.685 7.250 70.847 7.318Q71.010 7.385 71.130 7.505Q71.250 7.625 71.320 7.788Q71.390 7.950 71.390 8.140L71.390 8.140Q71.390 8.330 71.320 8.492Q71.250 8.655 71.130 8.775Q71.010 8.895 70.847 8.963Q70.685 9.030 70.500 9.030ZM70.500 8.645L70.500 8.645Q70.715 8.645 70.845 8.500Q70.975 8.355 70.975 8.140L70.975 8.140Q70.975 7.925 70.845 7.780Q70.715 7.635 70.500 7.635L70.500 7.635Q70.285 7.635 70.155 7.780Q70.025 7.925 70.025 8.140L70.025 8.140Q70.025 8.355 70.155 8.500Q70.285 8.645 70.500 8.645Z" fill="#0C0B0A"/><rect x="78.35" y="0.35" width="17.3" height="17.3" fill="none" stroke="#0C0B0A" stroke-width="0.7"/><path d="M84.350 9.010L85.410 10.800L84.775 10.800L84.380 10.110L84.010 9.450L83.980 9.450L83.600 10.110L83.190 10.800L82.595 10.800L83.665 9.010L82.660 7.310L83.295 7.310L83.650 7.935L84.010 8.580L84.035 8.580L84.395 7.935L84.765 7.310L85.360 7.310L84.350 9.010ZM88.100 10.800L85.900 10.800L85.900 10.375L86.720 10.375L86.720 7.735L85.900 7.735L85.900 7.310L88.100 7.310L88.100 7.735L87.280 7.735L87.280 10.375L88.100 10.375L88.100 10.800ZM91.100 10.800L88.900 10.800L88.900 10.375L89.720 10.375L89.720 7.735L88.900 7.735L88.900 7.310L91.100 7.310L91.100 7.735L90.280 7.735L90.280 10.375L91.100 10.375L91.100 10.800Z" fill="#0C0B0A"/></g>
<g id="sep-brass" data-ink="#B18A46 · Pantone 871 C metallic (screen) · flat #B18A46 (DTG)"><rect x="39.35" y="0.35" width="17.3" height="17.3" fill="none" stroke="#B18A46" stroke-width="0.7"/></g>
</svg>
