<svg xmlns="http://www.w3.org/2000/svg" width="280mm" height="330mm" viewBox="0 0 280 330"><title>Film positive — ink</title><g><path d="M49.986 218.585L49.986 134.020Q49.986 123.072 47.720 117.409Q45.455 111.746 38.282 109.859Q31.110 107.971 16.386 107.971L16.386 107.971Q15.254 107.971 15.254 105.706Q15.254 103.441 16.386 103.441L16.386 103.441Q25.069 103.441 35.829 103.818Q46.588 104.196 58.669 104.196L58.669 104.196Q70.749 104.196 81.697 103.818Q92.646 103.441 100.951 103.441L100.951 103.441Q102.084 103.441 102.084 105.706Q102.084 107.971 100.951 107.971L100.951 107.971Q87.360 107.971 79.999 109.859Q72.637 111.746 69.994 117.409Q67.352 123.072 67.352 134.020L67.352 134.020L67.352 218.585Q67.352 229.533 69.617 235.196Q71.882 240.859 79.244 242.746Q86.605 244.634 100.951 244.634L100.951 244.634Q102.084 244.634 102.084 246.899Q102.084 249.164 100.951 249.164L100.951 249.164Q92.646 249.164 81.697 248.787Q70.749 248.409 58.669 248.409L58.669 248.409Q46.965 248.409 36.017 248.787Q25.069 249.164 16.386 249.164L16.386 249.164Q15.254 249.164 15.254 246.899Q15.254 244.634 16.386 244.634L16.386 244.634Q30.354 244.634 37.527 242.746Q44.700 240.859 47.343 235.196Q49.986 229.533 49.986 218.585L49.986 218.585ZM120.205 244.634L120.205 244.634Q144.744 225.758 161.543 210.846Q178.343 195.934 188.536 184.042Q198.729 172.150 203.448 161.579Q208.167 151.009 208.167 140.438L208.167 140.438Q208.167 124.205 198.163 115.144Q188.159 106.084 173.435 106.084L173.435 106.084Q158.334 106.084 147.197 117.409Q136.061 128.735 129.643 151.764L129.643 151.764Q129.265 152.519 127.000 152.141Q124.735 151.764 125.112 150.631L125.112 150.631L139.458 95.135Q139.836 94.003 142.101 94.569Q144.366 95.135 143.611 95.890L143.611 95.890Q142.101 101.931 144.177 103.818Q146.254 105.706 148.896 105.706L148.896 105.706Q154.559 105.706 164.186 102.120Q173.813 98.533 187.026 98.533L187.026 98.533Q206.280 98.533 217.228 109.104Q228.176 119.674 228.176 136.285L228.176 136.285Q228.176 145.723 223.834 155.350Q219.493 164.977 210.055 175.925Q200.617 186.873 185.138 200.275Q169.660 213.677 147.009 231.043L147.009 231.043Q145.499 232.176 146.254 232.931Q147.009 233.686 148.519 233.686L148.519 233.686Q177.965 233.686 195.709 233.120Q213.452 232.553 222.702 230.288Q231.951 228.023 235.915 222.549Q239.879 217.075 242.144 207.637L242.144 207.637Q242.522 206.882 244.598 207.071Q246.674 207.259 246.674 208.014L246.674 208.014L241.389 245.012Q241.389 246.522 240.445 247.843Q239.501 249.164 237.991 249.164L237.991 249.164Q211.187 249.164 181.174 249.164Q151.161 249.164 122.847 249.164L122.847 249.164Q121.337 249.164 120.205 247.654Q119.072 246.144 120.205 244.634Z" fill="#000000"/><path d="M3.278 297.164L3.278 297.164Q3.212 297.164 3.212 297.032Q3.212 296.900 3.278 296.900L3.278 296.900Q3.982 296.900 4.356 296.790Q4.730 296.680 4.906 296.350Q5.082 296.020 5.192 295.382L5.192 295.382L6.996 285.196Q7.150 284.294 6.930 284.030Q6.710 283.766 5.764 283.766L5.764 283.766L5.170 283.766Q4.246 283.766 3.663 284.052Q3.080 284.338 2.684 285.009Q2.288 285.680 1.958 286.846L1.958 286.846Q1.936 286.912 1.804 286.879Q1.672 286.846 1.694 286.802L1.694 286.802Q1.782 286.538 1.914 286.032Q2.046 285.526 2.189 284.943Q2.332 284.360 2.453 283.821Q2.574 283.282 2.640 282.930L2.640 282.930Q2.684 282.864 2.805 282.875Q2.926 282.886 2.904 282.952L2.904 282.952Q2.860 283.282 3.190 283.348Q3.520 283.414 3.762 283.414L3.762 283.414Q4.576 283.436 5.665 283.458Q6.754 283.480 7.788 283.480L7.788 283.480Q9.108 283.480 10.010 283.447Q10.912 283.414 11.660 283.414L11.660 283.414Q12.276 283.414 12.617 283.315Q12.958 283.216 13.112 282.864L13.112 282.864Q13.156 282.798 13.266 282.809Q13.376 282.820 13.354 282.908L13.354 282.908Q13.266 283.216 13.134 283.755Q13.002 284.294 12.870 284.899Q12.738 285.504 12.639 286.021Q12.540 286.538 12.496 286.802L12.496 286.802Q12.474 286.868 12.353 286.857Q12.232 286.846 12.254 286.758L12.254 286.758Q12.452 285.614 12.364 284.965Q12.276 284.316 11.781 284.041Q11.286 283.766 10.296 283.766L10.296 283.766L9.702 283.766Q8.778 283.766 8.481 284.063Q8.184 284.360 8.030 285.240L8.030 285.240L6.248 295.382Q6.138 296.020 6.204 296.350Q6.270 296.680 6.611 296.790Q6.952 296.900 7.678 296.900L7.678 296.900Q7.722 296.900 7.722 297.032Q7.722 297.164 7.678 297.164L7.678 297.164Q7.238 297.164 6.688 297.142Q6.138 297.120 5.456 297.120L5.456 297.120Q4.840 297.120 4.279 297.142Q3.718 297.164 3.278 297.164ZM14.410 297.450L14.410 297.450Q13.662 297.450 13.200 296.977Q12.738 296.504 12.573 295.778Q12.408 295.052 12.518 294.304L12.518 294.304Q12.694 293.292 13.211 292.192Q13.728 291.092 14.124 290.190L14.124 290.190Q14.256 289.882 14.190 289.761Q14.124 289.640 13.882 289.640L13.882 289.640L12.738 289.640Q12.166 289.640 11.880 289.717Q11.594 289.794 11.429 290.047Q11.264 290.300 11.088 290.850L11.088 290.850Q11.044 290.938 10.923 290.894Q10.802 290.850 10.846 290.740L10.846 290.740Q11.176 289.794 11.418 289.354Q11.660 288.914 12.012 288.782Q12.364 288.650 13.002 288.650L13.002 288.650L14.938 288.650Q15.136 288.650 15.169 288.694Q15.202 288.738 15.114 288.914L15.114 288.914Q14.586 290.124 14.146 291.466Q13.706 292.808 13.574 293.886L13.574 293.886Q13.420 295.140 13.783 295.877Q14.146 296.614 14.916 296.614L14.916 296.614Q15.488 296.614 16.071 296.240Q16.654 295.866 17.182 295.195Q17.710 294.524 18.106 293.589Q18.502 292.654 18.656 291.532L18.656 291.532Q18.766 290.718 18.634 290.234Q18.502 289.750 18.150 289.750L18.150 289.750Q17.798 289.750 17.611 290.311Q17.424 290.872 17.358 291.422L17.358 291.422Q17.204 292.500 17.281 293.446Q17.358 294.392 17.644 295.107Q17.930 295.822 18.403 296.218Q18.876 296.614 19.492 296.614L19.492 296.614Q20.020 296.614 20.625 296.152Q21.230 295.690 21.736 294.854Q22.242 294.018 22.440 292.896L22.440 292.896Q22.616 291.862 22.539 291.257Q22.462 290.652 22.264 290.311Q22.066 289.970 21.868 289.750L21.868 289.750Q21.736 289.596 21.637 289.453Q21.538 289.310 21.538 289.112L21.538 289.112Q21.538 288.738 21.813 288.595Q22.088 288.452 22.308 288.452L22.308 288.452Q22.814 288.452 23.012 289.013Q23.210 289.574 23.221 290.377Q23.232 291.180 23.122 291.906L23.122 291.906Q22.924 293.226 22.462 294.249Q22 295.272 21.395 295.987Q20.790 296.702 20.152 297.076Q19.514 297.450 18.986 297.450L18.986 297.450Q18.370 297.450 17.897 296.988Q17.424 296.526 17.149 295.745Q16.874 294.964 16.808 294.007Q16.742 293.050 16.918 292.060L16.918 292.060Q17.072 291.092 17.336 290.300Q17.600 289.508 17.941 289.024Q18.282 288.540 18.612 288.540L18.612 288.540Q19.118 288.540 19.283 289.277Q19.448 290.014 19.272 290.960L19.272 290.960Q18.986 292.632 18.436 293.853Q17.886 295.074 17.193 295.877Q16.500 296.680 15.774 297.065Q15.048 297.450 14.410 297.450ZM27.302 297.428L27.302 297.428Q26.158 297.428 25.498 296.823Q24.838 296.218 24.629 295.228Q24.420 294.238 24.640 293.094L24.640 293.094Q24.772 292.280 25.223 291.444Q25.674 290.608 26.345 289.915Q27.016 289.222 27.841 288.804Q28.666 288.386 29.590 288.386L29.590 288.386Q30.360 288.386 30.734 288.705Q31.108 289.024 30.998 289.574L30.998 289.574Q30.888 290.080 30.393 290.553Q29.898 291.026 29.117 291.411Q28.336 291.796 27.379 292.071Q26.422 292.346 25.388 292.478L25.388 292.478L25.432 292.192Q27.148 291.950 28.325 291.411Q29.502 290.872 29.722 290.036L29.722 290.036Q29.898 289.420 29.502 289.200Q29.106 288.980 28.644 288.980L28.644 288.980Q27.852 288.980 27.258 289.442Q26.664 289.904 26.301 290.674Q25.938 291.444 25.784 292.368L25.784 292.368Q25.542 293.622 25.729 294.601Q25.916 295.580 26.499 296.152Q27.082 296.724 28.028 296.724L28.028 296.724Q28.578 296.724 29.161 296.570Q29.744 296.416 30.294 295.998L30.294 295.998Q30.360 295.954 30.437 296.042Q30.514 296.130 30.448 296.196L30.448 296.196Q29.612 296.856 28.842 297.142Q28.072 297.428 27.302 297.428ZM33.352 297.362L33.352 297.362Q32.824 297.362 32.692 296.889Q32.560 296.416 32.780 295.206L32.780 295.206L35.002 283.370Q35.134 282.666 34.826 282.468Q34.518 282.270 33.484 282.776L33.484 282.776Q33.396 282.820 33.341 282.688Q33.286 282.556 33.374 282.534L33.374 282.534L36.080 281.214Q36.168 281.170 36.256 281.258Q36.344 281.346 36.322 281.390L36.322 281.390L33.748 295.206Q33.594 295.888 33.715 296.218Q33.836 296.548 34.122 296.548L34.122 296.548Q34.364 296.548 34.760 296.251Q35.156 295.954 35.640 295.470L35.640 295.470Q35.728 295.382 35.816 295.470Q35.904 295.558 35.816 295.646L35.816 295.646Q35.090 296.460 34.507 296.911Q33.924 297.362 33.352 297.362ZM40.590 297.450L40.590 297.450Q39.842 297.450 39.380 296.977Q38.918 296.504 38.753 295.778Q38.588 295.052 38.698 294.304L38.698 294.304Q38.874 293.292 39.380 292.214Q39.886 291.136 40.304 290.190L40.304 290.190Q40.436 289.882 40.370 289.761Q40.304 289.640 40.062 289.640L40.062 289.640L38.918 289.640Q38.346 289.640 38.060 289.717Q37.774 289.794 37.609 290.047Q37.444 290.300 37.268 290.850L37.268 290.850Q37.224 290.938 37.103 290.894Q36.982 290.850 37.026 290.740L37.026 290.740Q37.356 289.794 37.598 289.354Q37.840 288.914 38.192 288.782Q38.544 288.650 39.182 288.650L39.182 288.650L41.118 288.650Q41.316 288.650 41.349 288.694Q41.382 288.738 41.294 288.914L41.294 288.914Q40.766 290.124 40.282 291.466Q39.798 292.808 39.666 293.886L39.666 293.886Q39.512 295.140 39.919 295.833Q40.326 296.526 41.096 296.526L41.096 296.526Q41.756 296.526 42.416 296.075Q43.076 295.624 43.615 294.810Q44.154 293.996 44.462 292.896L44.462 292.896Q44.770 291.796 44.693 291.169Q44.616 290.542 44.396 290.256Q44.176 289.970 44.066 289.882L44.066 289.882Q43.978 289.794 43.769 289.607Q43.560 289.420 43.560 289.112L43.560 289.112Q43.560 288.738 43.835 288.595Q44.110 288.452 44.330 288.452L44.330 288.452Q44.836 288.452 45.045 289.013Q45.254 289.574 45.265 290.377Q45.276 291.180 45.166 291.906L45.166 291.906Q44.968 293.226 44.473 294.249Q43.978 295.272 43.307 295.987Q42.636 296.702 41.932 297.076Q41.228 297.450 40.590 297.450ZM49.346 297.428L49.346 297.428Q48.202 297.428 47.542 296.823Q46.882 296.218 46.673 295.228Q46.464 294.238 46.684 293.094L46.684 293.094Q46.816 292.280 47.267 291.444Q47.718 290.608 48.389 289.915Q49.060 289.222 49.885 288.804Q50.710 288.386 51.634 288.386L51.634 288.386Q52.404 288.386 52.778 288.705Q53.152 289.024 53.042 289.574L53.042 289.574Q52.932 290.080 52.437 290.553Q51.942 291.026 51.161 291.411Q50.380 291.796 49.423 292.071Q48.466 292.346 47.432 292.478L47.432 292.478L47.476 292.192Q49.192 291.950 50.369 291.411Q51.546 290.872 51.766 290.036L51.766 290.036Q51.942 289.420 51.546 289.200Q51.150 288.980 50.688 288.980L50.688 288.980Q49.896 288.980 49.302 289.442Q48.708 289.904 48.345 290.674Q47.982 291.444 47.828 292.368L47.828 292.368Q47.586 293.622 47.773 294.601Q47.960 295.580 48.543 296.152Q49.126 296.724 50.072 296.724L50.072 296.724Q50.622 296.724 51.205 296.570Q51.788 296.416 52.338 295.998L52.338 295.998Q52.404 295.954 52.481 296.042Q52.558 296.130 52.492 296.196L52.492 296.196Q51.656 296.856 50.886 297.142Q50.116 297.428 49.346 297.428ZM70.576 297.362L70.576 297.362Q70.070 297.362 69.949 296.889Q69.828 296.416 70.048 295.206L70.048 295.206L70.686 291.708Q70.906 290.410 70.719 289.772Q70.532 289.134 69.894 289.134L69.894 289.134Q69.190 289.134 68.398 290.058Q67.606 290.982 66.913 292.753Q66.220 294.524 65.758 297.032L65.758 297.032L65.538 297.010Q65.978 294.458 66.748 292.511Q67.518 290.564 68.486 289.475Q69.454 288.386 70.510 288.386L70.510 288.386Q71.390 288.386 71.665 289.057Q71.940 289.728 71.676 291.290L71.676 291.290L70.972 295.206Q70.862 295.888 70.961 296.218Q71.060 296.548 71.324 296.548L71.324 296.548Q71.588 296.548 71.984 296.251Q72.380 295.954 72.864 295.470L72.864 295.470Q72.952 295.382 73.040 295.470Q73.128 295.558 73.040 295.646L73.040 295.646Q72.314 296.460 71.731 296.911Q71.148 297.362 70.576 297.362ZM60.368 297.340L60.368 297.340Q60.082 297.340 60.005 297.307Q59.928 297.274 59.928 297.208L59.928 297.208Q59.928 297.142 60.038 296.647Q60.148 296.152 60.236 295.668L60.236 295.668L61.160 290.630Q61.380 289.288 60.786 289.288L60.786 289.288Q60.522 289.288 60.104 289.552Q59.686 289.816 59.202 290.322L59.202 290.322Q59.136 290.410 59.037 290.311Q58.938 290.212 59.026 290.146L59.026 290.146Q59.752 289.310 60.379 288.892Q61.006 288.474 61.556 288.474L61.556 288.474Q62.062 288.474 62.183 288.947Q62.304 289.420 62.084 290.630L62.084 290.630L60.940 297.032Q60.874 297.340 60.368 297.340ZM65.208 297.340L65.208 297.340Q64.922 297.340 64.845 297.307Q64.768 297.274 64.768 297.208L64.768 297.208Q64.768 297.142 64.889 296.581Q65.010 296.020 65.098 295.536L65.098 295.536L65.802 291.708Q65.978 290.410 65.813 289.772Q65.648 289.134 65.054 289.134L65.054 289.134Q64.372 289.134 63.580 290.058Q62.788 290.982 62.095 292.753Q61.402 294.524 60.940 297.032L60.940 297.032L60.698 297.010Q61.138 294.458 61.908 292.511Q62.678 290.564 63.646 289.475Q64.614 288.386 65.670 288.386L65.670 288.386Q66.506 288.386 66.803 289.057Q67.100 289.728 66.792 291.290L66.792 291.290L65.758 297.032Q65.714 297.340 65.208 297.340ZM75.152 297.450L75.152 297.450Q74.448 297.450 74.085 296.922Q73.722 296.394 73.876 295.162L73.876 295.162Q74.052 293.952 74.635 292.753Q75.218 291.554 76.043 290.564Q76.868 289.574 77.803 288.980Q78.738 288.386 79.596 288.386L79.596 288.386Q79.992 288.386 80.366 288.529Q80.740 288.672 81.004 289.002Q81.268 289.332 81.312 289.860L81.312 289.860L80.476 289.310Q80.718 289.266 81.070 288.947Q81.422 288.628 81.488 288.210L81.488 288.210Q81.532 288.144 81.653 288.166Q81.774 288.188 81.752 288.232L81.752 288.232L80.476 295.206Q80.256 296.548 80.828 296.548L80.828 296.548Q81.092 296.548 81.488 296.251Q81.884 295.954 82.368 295.470L82.368 295.470Q82.434 295.404 82.522 295.492Q82.610 295.580 82.544 295.646L82.544 295.646Q81.818 296.460 81.235 296.911Q80.652 297.362 80.080 297.362L80.080 297.362Q79.574 297.362 79.453 296.889Q79.332 296.416 79.552 295.206L79.552 295.206L80.080 292.126L80.432 291.752Q79.750 293.380 78.859 294.678Q77.968 295.976 77.011 296.713Q76.054 297.450 75.152 297.450ZM75.790 296.504L75.790 296.504Q76.428 296.504 77.121 296.009Q77.814 295.514 78.463 294.700Q79.112 293.886 79.596 292.896Q80.080 291.906 80.278 290.938L80.278 290.938Q80.454 290.168 80.113 289.618Q79.772 289.068 78.914 289.090L78.914 289.090Q78.122 289.112 77.275 289.816Q76.428 290.520 75.779 291.697Q75.130 292.874 74.910 294.370L74.910 294.370Q74.756 295.404 74.954 295.954Q75.152 296.504 75.790 296.504ZM85.184 297.450L85.184 297.450Q84.656 297.450 84.205 297.153Q83.754 296.856 83.545 296.185Q83.336 295.514 83.512 294.392L83.512 294.392Q83.732 293.160 84.304 292.082Q84.876 291.004 85.701 290.168Q86.526 289.332 87.472 288.859Q88.418 288.386 89.386 288.386L89.386 288.386Q89.980 288.386 90.497 288.727Q91.014 289.068 91.102 289.860L91.102 289.860L90.222 291.752Q89.540 293.402 88.737 294.689Q87.934 295.976 87.043 296.713Q86.152 297.450 85.184 297.450ZM85.800 296.504L85.800 296.504Q86.548 296.504 87.263 295.910Q87.978 295.316 88.561 294.414Q89.144 293.512 89.540 292.566Q89.936 291.620 90.068 290.938L90.068 290.938Q90.244 290.036 89.870 289.552Q89.496 289.068 88.704 289.090L88.704 289.090Q87.230 289.112 86.075 290.256Q84.920 291.400 84.546 293.578L84.546 293.578Q84.304 295.052 84.678 295.778Q85.052 296.504 85.800 296.504ZM89.826 297.362L89.826 297.362Q89.298 297.362 89.177 296.889Q89.056 296.416 89.276 295.206L89.276 295.206L91.520 283.370Q91.652 282.666 91.311 282.468Q90.970 282.270 89.936 282.776L89.936 282.776Q89.848 282.820 89.804 282.688Q89.760 282.556 89.848 282.534L89.848 282.534L92.554 281.214Q92.620 281.170 92.708 281.258Q92.796 281.346 92.774 281.390L92.774 281.390L90.200 295.206Q90.068 295.888 90.189 296.218Q90.310 296.548 90.596 296.548L90.596 296.548Q90.838 296.548 91.234 296.251Q91.630 295.954 92.114 295.470L92.114 295.470Q92.180 295.382 92.279 295.470Q92.378 295.558 92.290 295.646L92.290 295.646Q91.542 296.460 90.970 296.911Q90.398 297.362 89.826 297.362ZM96.030 297.428L96.030 297.428Q94.886 297.428 94.226 296.823Q93.566 296.218 93.357 295.228Q93.148 294.238 93.368 293.094L93.368 293.094Q93.500 292.280 93.951 291.444Q94.402 290.608 95.073 289.915Q95.744 289.222 96.569 288.804Q97.394 288.386 98.318 288.386L98.318 288.386Q99.088 288.386 99.462 288.705Q99.836 289.024 99.726 289.574L99.726 289.574Q99.616 290.080 99.121 290.553Q98.626 291.026 97.845 291.411Q97.064 291.796 96.107 292.071Q95.150 292.346 94.116 292.478L94.116 292.478L94.160 292.192Q95.876 291.950 97.053 291.411Q98.230 290.872 98.450 290.036L98.450 290.036Q98.626 289.420 98.230 289.200Q97.834 288.980 97.372 288.980L97.372 288.980Q96.580 288.980 95.986 289.442Q95.392 289.904 95.029 290.674Q94.666 291.444 94.512 292.368L94.512 292.368Q94.270 293.622 94.457 294.601Q94.644 295.580 95.227 296.152Q95.810 296.724 96.756 296.724L96.756 296.724Q97.306 296.724 97.889 296.570Q98.472 296.416 99.022 295.998L99.022 295.998Q99.088 295.954 99.165 296.042Q99.242 296.130 99.176 296.196L99.176 296.196Q98.340 296.856 97.570 297.142Q96.800 297.428 96.030 297.428ZM101.530 297.406L101.530 297.406Q101.134 297.406 100.903 297.175Q100.672 296.944 100.672 296.548L100.672 296.548Q100.672 296.174 100.903 295.954Q101.134 295.734 101.530 295.734L101.530 295.734Q101.948 295.734 102.168 295.954Q102.388 296.174 102.388 296.548L102.388 296.548Q102.388 297.406 101.530 297.406Z" fill="#000000"/><path d="M0.844 315.164L0.360 315.164L0.140 312.372L0.440 312.372L0.556 313.972L0.616 314.816L0.648 314.816L1.016 313.100L1.392 313.100L1.760 314.816L1.792 314.816L1.852 313.972L1.968 312.372L2.260 312.372L2.040 315.164L1.556 315.164L1.216 313.496L1.184 313.496L0.844 315.164ZM4.544 315.164L4.544 313.896L3.456 313.896L3.456 315.164L3.120 315.164L3.120 312.372L3.456 312.372L3.456 313.604L4.544 313.604L4.544 312.372L4.880 312.372L4.880 315.164L4.544 315.164ZM7.680 315.164L5.960 315.164L5.960 312.372L7.680 312.372L7.680 312.664L6.296 312.664L6.296 313.604L7.632 313.604L7.632 313.896L6.296 313.896L6.296 314.872L7.680 314.872L7.680 315.164ZM10.004 315.164L9.052 312.812L9.024 312.812L9.024 315.164L8.720 315.164L8.720 312.372L9.196 312.372L10.148 314.724L10.176 314.724L10.176 312.372L10.480 312.372L10.480 315.164L10.004 315.164ZM16.300 312.664L15.368 312.664L15.368 315.164L15.032 315.164L15.032 312.664L14.100 312.664L14.100 312.372L16.300 312.372L16.300 312.664ZM18.544 315.164L18.544 313.896L17.456 313.896L17.456 315.164L17.120 315.164L17.120 312.372L17.456 312.372L17.456 313.604L18.544 313.604L18.544 312.372L18.880 312.372L18.880 315.164L18.544 315.164ZM21.680 315.164L19.960 315.164L19.960 312.372L21.680 312.372L21.680 312.664L20.296 312.664L20.296 313.604L21.632 313.604L21.632 313.896L20.296 313.896L20.296 314.872L21.680 314.872L21.680 315.164ZM23.768 315.164L23.432 315.164L23.432 314.068L22.468 312.372L22.852 312.372L23.252 313.100L23.592 313.736L23.608 313.736L23.956 313.100L24.356 312.372L24.732 312.372L23.768 314.068L23.768 315.164ZM30.280 315.164L29.924 315.164L29.688 314.368L28.708 314.368L28.472 315.164L28.124 315.164L28.980 312.372L29.424 312.372L30.280 315.164ZM29.608 314.076L29.216 312.728L29.180 312.728L28.788 314.076L29.608 314.076ZM31.496 313.972L31.496 315.164L31.160 315.164L31.160 312.372L32.176 312.372Q32.564 312.372 32.768 312.584Q32.972 312.796 32.972 313.176L32.972 313.176Q32.972 313.516 32.796 313.720Q32.620 313.924 32.284 313.956L32.284 313.956L32.996 315.164L32.620 315.164L31.940 313.972L31.496 313.972ZM31.496 313.688L32.168 313.688Q32.380 313.688 32.498 313.582Q32.616 313.476 32.616 313.280L32.616 313.280L32.616 313.072Q32.616 312.876 32.498 312.770Q32.380 312.664 32.168 312.664L32.168 312.664L31.496 312.664L31.496 313.688ZM35.680 315.164L33.960 315.164L33.960 312.372L35.680 312.372L35.680 312.664L34.296 312.664L34.296 313.604L35.632 313.604L35.632 313.896L34.296 313.896L34.296 314.872L35.680 314.872L35.680 315.164ZM40.976 315.164L40.976 314.792L40.956 314.792Q40.920 314.872 40.872 314.948Q40.824 315.024 40.750 315.082Q40.676 315.140 40.572 315.176Q40.468 315.212 40.324 315.212L40.324 315.212Q39.868 315.212 39.646 314.844Q39.424 314.476 39.424 313.788L39.424 313.788Q39.424 313.068 39.668 312.696Q39.912 312.324 40.420 312.324L40.420 312.324Q40.616 312.324 40.760 312.376Q40.904 312.428 41.006 312.516Q41.108 312.604 41.176 312.714Q41.244 312.824 41.288 312.936L41.288 312.936L41.000 313.068Q40.964 312.976 40.918 312.894Q40.872 312.812 40.806 312.750Q40.740 312.688 40.648 312.652Q40.556 312.616 40.432 312.616L40.432 312.616Q40.096 312.616 39.938 312.868Q39.780 313.120 39.780 313.540L39.780 313.540L39.780 313.972Q39.780 314.184 39.812 314.358Q39.844 314.532 39.918 314.660Q39.992 314.788 40.110 314.858Q40.228 314.928 40.400 314.928L40.400 314.928Q40.672 314.928 40.824 314.764Q40.976 314.600 40.976 314.340L40.976 314.340L40.976 314.052L40.388 314.052L40.388 313.784L41.288 313.784L41.288 315.164L40.976 315.164ZM43.200 315.212L43.200 315.212Q42.944 315.212 42.760 315.114Q42.576 315.016 42.456 314.832Q42.336 314.648 42.280 314.380Q42.224 314.112 42.224 313.768L42.224 313.768Q42.224 313.428 42.280 313.158Q42.336 312.888 42.456 312.704Q42.576 312.520 42.760 312.422Q42.944 312.324 43.200 312.324L43.200 312.324Q43.456 312.324 43.640 312.422Q43.824 312.520 43.944 312.704Q44.064 312.888 44.120 313.158Q44.176 313.428 44.176 313.768L44.176 313.768Q44.176 314.112 44.120 314.380Q44.064 314.648 43.944 314.832Q43.824 315.016 43.640 315.114Q43.456 315.212 43.200 315.212ZM43.200 314.920L43.200 314.920Q43.368 314.920 43.484 314.854Q43.600 314.788 43.676 314.668Q43.752 314.548 43.786 314.378Q43.820 314.208 43.820 313.996L43.820 313.996L43.820 313.540Q43.820 313.332 43.786 313.160Q43.752 312.988 43.676 312.868Q43.600 312.748 43.484 312.682Q43.368 312.616 43.200 312.616L43.200 312.616Q43.032 312.616 42.916 312.682Q42.800 312.748 42.724 312.868Q42.648 312.988 42.614 313.160Q42.580 313.332 42.580 313.540L42.580 313.540L42.580 313.996Q42.580 314.208 42.614 314.378Q42.648 314.548 42.724 314.668Q42.800 314.788 42.916 314.854Q43.032 314.920 43.200 314.920ZM46.404 315.164L45.452 312.812L45.424 312.812L45.424 315.164L45.120 315.164L45.120 312.372L45.596 312.372L46.548 314.724L46.576 314.724L46.576 312.372L46.880 312.372L46.880 315.164L46.404 315.164ZM49.680 315.164L47.960 315.164L47.960 312.372L49.680 312.372L49.680 312.664L48.296 312.664L48.296 313.604L49.632 313.604L49.632 313.896L48.296 313.896L48.296 314.872L49.680 314.872L49.680 315.164ZM55.500 312.664L54.568 312.664L54.568 315.164L54.232 315.164L54.232 312.664L53.300 312.664L53.300 312.372L55.500 312.372L55.500 312.664ZM57.744 315.164L57.744 313.896L56.656 313.896L56.656 315.164L56.320 315.164L56.320 312.372L56.656 312.372L56.656 313.604L57.744 313.604L57.744 312.372L58.080 312.372L58.080 315.164L57.744 315.164ZM60.880 315.164L59.160 315.164L59.160 312.372L60.880 312.372L60.880 312.664L59.496 312.664L59.496 313.604L60.832 313.604L60.832 313.896L59.496 313.896L59.496 314.872L60.880 314.872L60.880 315.164ZM65.096 315.164L64.760 315.164L64.760 312.372L65.776 312.372Q66.164 312.372 66.368 312.584Q66.572 312.796 66.572 313.176L66.572 313.176Q66.572 313.556 66.368 313.768Q66.164 313.980 65.776 313.980L65.776 313.980L65.096 313.980L65.096 315.164ZM65.096 312.664L65.096 313.688L65.768 313.688Q65.980 313.688 66.098 313.582Q66.216 313.476 66.216 313.280L66.216 313.280L66.216 313.072Q66.216 312.876 66.098 312.770Q65.980 312.664 65.768 312.664L65.768 312.664L65.096 312.664ZM69.480 315.164L69.124 315.164L68.888 314.368L67.908 314.368L67.672 315.164L67.324 315.164L68.180 312.372L68.624 312.372L69.480 315.164ZM68.808 314.076L68.416 312.728L68.380 312.728L67.988 314.076L68.808 314.076ZM72.300 312.664L71.368 312.664L71.368 315.164L71.032 315.164L71.032 312.664L70.100 312.664L70.100 312.372L72.300 312.372L72.300 312.664ZM75.100 312.664L74.168 312.664L74.168 315.164L73.832 315.164L73.832 312.664L72.900 312.664L72.900 312.372L75.100 312.372L75.100 312.664ZM77.680 315.164L75.960 315.164L75.960 312.372L77.680 312.372L77.680 312.664L76.296 312.664L76.296 313.604L77.632 313.604L77.632 313.896L76.296 313.896L76.296 314.872L77.680 314.872L77.680 315.164ZM79.096 313.972L79.096 315.164L78.760 315.164L78.760 312.372L79.776 312.372Q80.164 312.372 80.368 312.584Q80.572 312.796 80.572 313.176L80.572 313.176Q80.572 313.516 80.396 313.720Q80.220 313.924 79.884 313.956L79.884 313.956L80.596 315.164L80.220 315.164L79.540 313.972L79.096 313.972ZM79.096 313.688L79.768 313.688Q79.980 313.688 80.098 313.582Q80.216 313.476 80.216 313.280L80.216 313.280L80.216 313.072Q80.216 312.876 80.098 312.770Q79.980 312.664 79.768 312.664L79.768 312.664L79.096 312.664L79.096 313.688ZM82.804 315.164L81.852 312.812L81.824 312.812L81.824 315.164L81.520 315.164L81.520 312.372L81.996 312.372L82.948 314.724L82.976 314.724L82.976 312.372L83.280 312.372L83.280 315.164L82.804 315.164ZM88.864 315.164L87.136 315.164L87.136 314.896L87.832 314.896L87.832 312.640L87.136 312.640L87.136 312.372L88.864 312.372L88.864 312.640L88.168 312.640L88.168 314.896L88.864 314.896L88.864 315.164ZM90.792 315.212L90.792 315.212Q90.416 315.212 90.176 315.074Q89.936 314.936 89.780 314.720L89.780 314.720L90.024 314.520Q90.188 314.724 90.370 314.824Q90.552 314.924 90.804 314.924L90.804 314.924Q91.108 314.924 91.268 314.784Q91.428 314.644 91.428 314.392L91.428 314.392Q91.428 314.188 91.312 314.074Q91.196 313.960 90.908 313.912L90.908 313.912L90.596 313.860Q90.392 313.824 90.254 313.752Q90.116 313.680 90.032 313.578Q89.948 313.476 89.912 313.354Q89.876 313.232 89.876 313.100L89.876 313.100Q89.876 312.716 90.128 312.520Q90.380 312.324 90.808 312.324L90.808 312.324Q91.144 312.324 91.374 312.436Q91.604 312.548 91.744 312.752L91.744 312.752L91.508 312.956Q91.392 312.804 91.228 312.708Q91.064 312.612 90.804 312.612L90.804 312.612Q90.520 312.612 90.368 312.732Q90.216 312.852 90.216 313.092L90.216 313.092Q90.216 313.280 90.330 313.398Q90.444 313.516 90.740 313.568L90.740 313.568L91.040 313.620Q91.244 313.656 91.384 313.728Q91.524 313.800 91.610 313.900Q91.696 314.000 91.732 314.124Q91.768 314.248 91.768 314.384L91.768 314.384Q91.768 314.772 91.514 314.992Q91.260 315.212 90.792 315.212ZM95.896 313.972L95.896 315.164L95.560 315.164L95.560 312.372L96.576 312.372Q96.964 312.372 97.168 312.584Q97.372 312.796 97.372 313.176L97.372 313.176Q97.372 313.516 97.196 313.720Q97.020 313.924 96.684 313.956L96.684 313.956L97.396 315.164L97.020 315.164L96.340 313.972L95.896 313.972ZM95.896 313.688L96.568 313.688Q96.780 313.688 96.898 313.582Q97.016 313.476 97.016 313.280L97.016 313.280L97.016 313.072Q97.016 312.876 96.898 312.770Q96.780 312.664 96.568 312.664L96.568 312.664L95.896 312.664L95.896 313.688ZM100.080 315.164L98.360 315.164L98.360 312.372L100.080 312.372L100.080 312.664L98.696 312.664L98.696 313.604L100.032 313.604L100.032 313.896L98.696 313.896L98.696 314.872L100.080 314.872L100.080 315.164ZM103.100 312.664L102.168 312.664L102.168 315.164L101.832 315.164L101.832 312.664L100.900 312.664L100.900 312.372L103.100 312.372L103.100 312.664ZM105.664 315.164L103.936 315.164L103.936 314.896L104.632 314.896L104.632 312.640L103.936 312.640L103.936 312.372L105.664 312.372L105.664 312.640L104.968 312.640L104.968 314.896L105.664 314.896L105.664 315.164ZM107.096 313.972L107.096 315.164L106.760 315.164L106.760 312.372L107.776 312.372Q108.164 312.372 108.368 312.584Q108.572 312.796 108.572 313.176L108.572 313.176Q108.572 313.516 108.396 313.720Q108.220 313.924 107.884 313.956L107.884 313.956L108.596 315.164L108.220 315.164L107.540 313.972L107.096 313.972ZM107.096 313.688L107.768 313.688Q107.980 313.688 108.098 313.582Q108.216 313.476 108.216 313.280L108.216 313.280L108.216 313.072Q108.216 312.876 108.098 312.770Q107.980 312.664 107.768 312.664L107.768 312.664L107.096 312.664L107.096 313.688ZM111.280 315.164L109.560 315.164L109.560 312.372L111.280 312.372L111.280 312.664L109.896 312.664L109.896 313.604L111.232 313.604L111.232 313.896L109.896 313.896L109.896 314.872L111.280 314.872L111.280 315.164ZM112.380 315.164L112.380 312.372L113.160 312.372Q113.672 312.372 113.924 312.724Q114.176 313.076 114.176 313.768L114.176 313.768Q114.176 314.460 113.924 314.812Q113.672 315.164 113.160 315.164L113.160 315.164L112.380 315.164ZM112.716 314.872L113.144 314.872Q113.480 314.872 113.650 314.640Q113.820 314.408 113.820 313.984L113.820 313.984L113.820 313.552Q113.820 313.128 113.650 312.896Q113.480 312.664 113.144 312.664L113.144 312.664L112.716 312.664L112.716 314.872ZM116.000 315.200L116.000 315.200Q115.836 315.200 115.770 315.132Q115.704 315.064 115.704 314.960L115.704 314.960L115.704 314.888Q115.704 314.784 115.770 314.716Q115.836 314.648 116.000 314.648L116.000 314.648Q116.164 314.648 116.230 314.716Q116.296 314.784 116.296 314.888L116.296 314.888L116.296 314.960Q116.296 315.064 116.230 315.132Q116.164 315.200 116.000 315.200Z" fill="#000000"/></g></svg>
